<?xml version="1.0" encoding="UTF-8"?>
<svg xmlns="http://www.w3.org/2000/svg" xmlns:xlink="http://www.w3.org/1999/xlink" width="30px" height="30px" viewBox="0 0 30 30" version="1.1">
<g id="surface1">
<path style=" stroke:none;fill-rule:nonzero;fill:rgb(0%,0%,0%);fill-opacity:1;" d="M 4.085938 13.941406 C 4.296875 13.972656 4.480469 13.851562 4.726562 13.789062 C 4.613281 14.089844 4.941406 14.15625 4.957031 14.394531 C 4.960938 14.480469 5.097656 14.464844 5.183594 14.421875 C 5.320312 14.351562 5.425781 14.246094 5.523438 14.125 C 5.578125 14.058594 5.625 13.980469 5.714844 13.957031 C 5.792969 13.972656 5.734375 14.042969 5.769531 14.074219 C 5.785156 14.070312 5.804688 14.070312 5.8125 14.058594 C 6.0625 13.738281 6.433594 13.558594 6.746094 13.292969 C 6.320312 12.808594 5.761719 12.375 6.242188 11.640625 C 6.332031 11.617188 6.324219 11.738281 6.414062 11.730469 C 6.550781 11.625 6.660156 11.457031 6.859375 11.40625 C 6.738281 11.5625 6.609375 11.703125 6.488281 11.851562 C 6.402344 11.953125 6.328125 12.023438 6.25 11.820312 C 6.171875 12.039062 6.179688 12.21875 6.257812 12.390625 C 6.371094 12.65625 6.5625 12.859375 6.78125 13.039062 C 6.984375 13.207031 7.207031 13.140625 7.304688 12.886719 C 7.746094 13.078125 7.921875 13 7.945312 12.585938 C 7.414062 12.597656 7.421875 12.121094 7.234375 11.785156 C 7.265625 11.949219 7.164062 11.988281 7.054688 12.007812 C 6.90625 12.03125 6.851562 12.113281 6.886719 12.257812 C 6.890625 12.265625 6.871094 12.277344 6.855469 12.296875 C 6.824219 12.246094 6.792969 12.199219 6.765625 12.152344 C 6.855469 12.332031 6.582031 12.390625 6.6875 12.578125 C 6.390625 12.359375 6.371094 12.242188 6.554688 12.023438 C 6.824219 11.703125 7.175781 11.539062 7.566406 11.414062 C 7.78125 11.34375 7.960938 11.320312 8.148438 11.46875 C 8.222656 11.527344 8.3125 11.578125 8.390625 11.472656 C 8.398438 11.339844 8.238281 11.332031 8.21875 11.222656 C 8.273438 11.144531 8.335938 11.269531 8.390625 11.21875 C 8.375 11.183594 8.363281 11.148438 8.34375 11.105469 C 8.398438 11.109375 8.445312 11.113281 8.503906 11.117188 C 8.355469 10.953125 8.214844 10.964844 8.0625 11.074219 C 8 11.121094 7.910156 11.226562 7.839844 11.144531 C 7.75 11.042969 7.699219 11.105469 7.636719 11.144531 C 7.542969 11.199219 7.445312 11.261719 7.363281 11.335938 C 7.214844 11.460938 7.082031 11.5 6.96875 11.300781 C 7.070312 11.203125 7.113281 11.003906 7.332031 11.101562 C 7.363281 11.113281 7.429688 11.054688 7.472656 11.023438 C 7.691406 10.867188 7.941406 10.792969 8.195312 10.742188 C 7.683594 10.089844 7.675781 9.359375 7.8125 8.601562 C 7.859375 8.355469 8.011719 8.207031 8.242188 8.128906 C 8.484375 8.046875 8.738281 8.007812 8.988281 7.953125 C 9.167969 7.917969 9.261719 8.066406 9.394531 8.132812 C 9.71875 7.949219 10.039062 7.75 10.445312 7.824219 C 10.570312 7.414062 10.542969 6.992188 10.4375 6.597656 C 10.292969 6.039062 10.386719 5.539062 10.644531 5.046875 C 10.699219 4.949219 10.757812 4.851562 10.800781 4.75 C 10.929688 4.4375 11.128906 4.292969 11.496094 4.289062 C 11.710938 4.289062 11.933594 4.289062 12.152344 4.292969 C 12.335938 4.296875 12.488281 4.378906 12.582031 4.554688 C 12.757812 4.875 12.863281 5.21875 12.839844 5.585938 C 12.804688 6.0625 12.964844 6.441406 13.332031 6.746094 C 13.457031 6.851562 13.515625 7 13.503906 7.21875 C 13.191406 7.027344 12.816406 7.003906 12.710938 6.574219 C 12.6875 6.476562 12.636719 6.375 12.625 6.261719 C 12.578125 5.878906 12.339844 5.605469 12.042969 5.390625 C 11.910156 5.292969 11.875 5.449219 11.839844 5.542969 C 11.695312 5.925781 11.746094 6.332031 11.734375 6.730469 C 11.730469 6.902344 11.785156 7.042969 11.890625 7.167969 C 12.011719 7.3125 12.164062 7.429688 12.359375 7.433594 C 12.507812 7.441406 12.582031 7.503906 12.601562 7.640625 C 12.617188 7.765625 12.753906 7.820312 12.777344 7.980469 C 12.570312 7.90625 12.398438 7.78125 12.183594 7.800781 C 12.089844 7.808594 11.996094 7.789062 11.929688 7.882812 C 11.863281 7.976562 11.929688 8.042969 11.964844 8.121094 C 12.09375 8.40625 12.210938 8.695312 12.332031 8.980469 C 12.359375 9.046875 12.378906 9.125 12.484375 9.089844 C 12.582031 9.058594 12.574219 8.996094 12.558594 8.898438 C 12.648438 8.769531 12.570312 8.683594 12.550781 8.585938 C 12.410156 8.59375 12.417969 8.664062 12.449219 8.746094 C 12.234375 8.722656 12.308594 8.613281 12.394531 8.53125 C 12.460938 8.46875 12.554688 8.4375 12.644531 8.386719 C 12.746094 8.507812 12.695312 8.644531 12.703125 8.761719 C 12.710938 8.96875 12.804688 9.054688 13.011719 9.011719 C 13.027344 9.011719 13.042969 9.007812 13.054688 9.003906 C 13.179688 8.933594 13.402344 9.070312 13.4375 8.847656 C 13.46875 8.621094 13.503906 8.375 13.257812 8.21875 C 13.234375 8.203125 13.21875 8.175781 13.183594 8.128906 C 13.355469 8.09375 13.554688 8.132812 13.605469 7.886719 C 13.738281 8.042969 13.851562 8.03125 13.941406 7.90625 C 14.257812 8.152344 14.53125 8.054688 14.621094 7.675781 C 14.726562 7.222656 14.746094 6.773438 14.445312 6.339844 C 14.875 6.300781 14.902344 6.703125 15.113281 6.851562 C 15.582031 6.371094 16.007812 5.867188 16.28125 5.25 C 16.714844 5.382812 16.804688 5.335938 16.953125 4.902344 C 17.003906 4.757812 17.109375 4.675781 17.296875 4.601562 C 17.273438 4.898438 17.089844 5.089844 17.007812 5.320312 C 17.007812 5.417969 17.144531 5.425781 17.152344 5.527344 C 17.074219 5.605469 17 5.550781 16.9375 5.511719 C 16.804688 5.421875 16.695312 5.476562 16.621094 5.574219 C 16.523438 5.699219 16.394531 5.769531 16.265625 5.851562 C 15.941406 6.0625 15.710938 6.359375 15.527344 6.691406 C 15.472656 6.789062 15.449219 6.902344 15.445312 7.015625 C 15.4375 7.257812 15.496094 7.308594 15.726562 7.234375 C 15.980469 7.152344 16.238281 7.082031 16.46875 6.953125 C 16.785156 6.777344 17.097656 6.761719 17.4375 6.832031 C 17.492188 6.84375 17.554688 6.867188 17.601562 6.847656 C 17.949219 6.71875 18.21875 6.867188 18.503906 7.042969 C 18.832031 7.246094 19.199219 7.367188 19.566406 7.488281 C 19.753906 7.546875 19.941406 7.566406 20.132812 7.503906 C 20.265625 7.460938 20.332031 7.507812 20.347656 7.644531 C 20.371094 7.910156 20.523438 8.066406 20.78125 8.109375 C 20.898438 8.132812 20.914062 8.199219 20.929688 8.292969 C 20.953125 8.445312 20.933594 8.652344 21.023438 8.730469 C 21.265625 8.933594 21.226562 9.28125 21.464844 9.480469 C 21.511719 9.242188 21.523438 9 21.710938 8.789062 C 21.78125 8.996094 21.707031 9.195312 21.8125 9.375 C 21.859375 9.382812 21.839844 9.265625 21.933594 9.300781 C 21.941406 9.578125 22.105469 9.828125 22.167969 10.09375 C 22.070312 10.191406 22.03125 10.074219 21.953125 10.074219 C 22.046875 10.429688 22.152344 10.773438 22.382812 11.070312 C 22.542969 10.992188 22.667969 10.90625 22.773438 10.796875 C 22.90625 10.664062 22.980469 10.527344 22.804688 10.367188 C 22.753906 10.324219 22.71875 10.265625 22.75 10.195312 C 22.820312 10.023438 22.898438 9.851562 22.980469 9.65625 C 23.167969 9.816406 23.121094 10.058594 23.265625 10.242188 C 23.589844 10.148438 23.925781 10.0625 24.28125 10.074219 C 24.464844 10.078125 24.597656 10.144531 24.65625 10.308594 C 24.730469 10.507812 24.855469 10.652344 25.003906 10.789062 C 25.09375 10.871094 25.160156 10.96875 25.132812 11.117188 C 24.9375 11.082031 24.863281 10.746094 24.582031 10.898438 C 24.503906 10.734375 24.269531 10.769531 24.140625 10.617188 C 24.078125 10.546875 23.945312 10.636719 23.863281 10.703125 C 23.679688 10.847656 23.519531 11.011719 23.332031 11.257812 C 23.921875 10.972656 24.367188 11.207031 24.8125 11.484375 C 25.136719 11.6875 25.542969 11.65625 25.804688 11.324219 C 25.976562 11.097656 26.167969 10.882812 26.203125 10.589844 C 26.316406 10.59375 26.28125 10.695312 26.347656 10.726562 C 26.449219 10.277344 26.316406 9.871094 26.1875 9.457031 C 26.082031 9.128906 25.859375 8.945312 25.574219 8.796875 C 25.375 8.691406 25.210938 8.703125 25.058594 8.875 C 24.996094 8.945312 24.921875 9.007812 24.855469 9.078125 C 24.613281 9.328125 24.34375 9.539062 24.011719 9.65625 C 23.90625 9.695312 23.828125 9.6875 23.703125 9.652344 C 23.355469 9.554688 23.074219 9.339844 22.75 9.210938 C 22.738281 8.707031 22.34375 8.242188 21.929688 8.253906 C 21.996094 8.121094 22.175781 8.003906 22.316406 8.023438 C 22.480469 8.050781 22.640625 8.109375 22.777344 8.210938 C 22.910156 8.304688 22.957031 8.496094 23.164062 8.511719 C 23.136719 8.613281 23.15625 8.71875 23.074219 8.835938 C 22.851562 8.671875 22.824219 8.332031 22.476562 8.246094 C 22.710938 8.492188 22.90625 8.738281 22.996094 9.003906 C 23.136719 9.410156 23.464844 9.308594 23.726562 9.402344 C 23.589844 9.230469 23.363281 9.144531 23.316406 8.894531 C 23.527344 9.128906 23.894531 9.140625 24.101562 9.4375 C 24.25 9.40625 24.402344 9.316406 24.523438 9.167969 C 24.675781 8.984375 24.839844 8.808594 25.011719 8.640625 C 25.195312 8.464844 25.382812 8.441406 25.597656 8.558594 C 25.734375 8.632812 25.875 8.710938 26.019531 8.792969 C 25.917969 8.339844 25.648438 8.09375 25.222656 8.050781 C 25.140625 8.042969 25.085938 8.082031 25.03125 8.132812 C 24.867188 8.289062 24.734375 8.464844 24.636719 8.671875 C 24.59375 8.773438 24.554688 8.878906 24.445312 8.941406 C 24.378906 8.820312 24.417969 8.722656 24.472656 8.632812 C 24.542969 8.507812 24.621094 8.386719 24.707031 8.269531 C 25.097656 7.746094 25.691406 7.800781 25.980469 8.394531 C 26.074219 8.582031 26.132812 8.789062 26.25 8.957031 C 26.363281 9.125 26.53125 9.257812 26.683594 9.40625 C 26.914062 9.308594 26.976562 9.019531 27.21875 8.949219 C 27.28125 9.039062 27.207031 9.078125 27.179688 9.128906 C 26.960938 9.476562 26.917969 9.84375 27.03125 10.234375 C 27.054688 10.320312 27.097656 10.398438 26.96875 10.449219 C 26.867188 10.492188 26.929688 10.59375 26.9375 10.664062 C 26.996094 11.238281 26.917969 11.777344 26.585938 12.265625 C 26.554688 12.3125 26.527344 12.359375 26.488281 12.398438 C 26.453125 12.441406 26.40625 12.472656 26.3125 12.554688 C 26.355469 12.394531 26.382812 12.292969 26.417969 12.179688 C 26.304688 12.066406 26.164062 12.109375 26.054688 12.167969 C 25.859375 12.269531 25.6875 12.359375 25.445312 12.367188 C 25.082031 12.378906 24.753906 12.550781 24.449219 12.835938 C 24.457031 12.597656 24.628906 12.496094 24.722656 12.308594 C 24.222656 12.425781 23.90625 12.730469 23.625 13.082031 C 23.574219 13.144531 23.535156 13.214844 23.496094 13.285156 C 23.453125 13.367188 23.375 13.464844 23.453125 13.550781 C 23.519531 13.625 23.625 13.589844 23.714844 13.5625 C 23.734375 13.429688 23.59375 13.347656 23.636719 13.199219 C 23.765625 13.222656 23.800781 13.339844 23.851562 13.425781 C 24.125 13.898438 24.714844 14.011719 25.125 13.664062 C 25.140625 13.648438 25.164062 13.640625 25.1875 13.628906 C 25.347656 13.8125 25.5625 13.816406 25.746094 13.644531 C 25.84375 13.550781 25.894531 13.445312 26.089844 13.566406 C 26.308594 13.699219 26.636719 13.390625 26.699219 13.03125 C 26.941406 13.042969 26.925781 12.890625 26.894531 12.714844 C 26.800781 12.199219 26.929688 11.902344 27.367188 11.6875 C 27.273438 11.996094 27.144531 12.296875 27.523438 12.484375 C 27.347656 12.734375 27.195312 12.964844 27.34375 13.257812 C 27.375 13.316406 27.3125 13.355469 27.265625 13.386719 C 27.074219 13.515625 27.027344 13.695312 27.085938 13.914062 C 27.113281 14.011719 27.132812 14.125 27.007812 14.152344 C 26.714844 14.222656 26.714844 14.449219 26.6875 14.675781 C 26.671875 14.816406 26.742188 14.980469 26.617188 15.105469 C 26.59375 15.097656 26.566406 15.097656 26.566406 15.085938 C 26.488281 14.792969 26.308594 14.765625 26.027344 14.820312 C 25.484375 14.929688 25.441406 14.953125 25.292969 15.488281 C 25.238281 15.699219 24.980469 15.722656 24.835938 15.867188 C 24.917969 15.664062 24.878906 15.441406 25.011719 15.261719 C 25.109375 15.125 25.101562 14.96875 25.023438 14.828125 C 24.9375 14.683594 24.78125 14.726562 24.652344 14.734375 C 24.25 14.765625 24.078125 15.007812 24.066406 15.425781 C 24.058594 15.617188 23.9375 15.808594 23.847656 15.992188 C 23.722656 16.246094 23.730469 16.503906 23.800781 16.761719 C 23.863281 16.996094 24.011719 17.109375 24.265625 17.074219 C 24.382812 17.058594 24.492188 17.160156 24.632812 17.121094 C 24.632812 16.941406 24.582031 16.816406 24.34375 16.796875 C 24.40625 16.40625 24.46875 16.015625 24.535156 15.601562 C 24.6875 15.679688 24.699219 15.8125 24.730469 15.929688 C 24.785156 16.117188 24.859375 16.304688 25.046875 16.390625 C 25.3125 16.511719 25.410156 16.753906 25.527344 16.984375 C 25.609375 17.144531 25.574219 17.289062 25.453125 17.425781 C 25.226562 17.683594 24.980469 17.921875 24.839844 18.246094 C 24.765625 18.414062 24.574219 18.359375 24.441406 18.402344 C 24.40625 18.601562 24.597656 18.71875 24.609375 18.929688 C 24.273438 18.890625 24.109375 18.605469 23.839844 18.480469 C 23.785156 18.539062 23.894531 18.609375 23.835938 18.679688 C 23.824219 18.679688 23.800781 18.6875 23.785156 18.679688 C 23.601562 18.585938 23.480469 18.421875 23.351562 18.273438 C 23.175781 18.074219 22.652344 17.949219 22.417969 18.046875 C 22.359375 18.074219 22.339844 18.121094 22.316406 18.171875 C 22.179688 18.464844 22.027344 18.746094 21.773438 18.957031 C 21.703125 19.015625 21.699219 19.089844 21.695312 19.171875 C 21.648438 19.726562 21.433594 20.183594 20.949219 20.496094 C 20.632812 20.699219 20.289062 20.777344 19.917969 20.769531 C 19.789062 20.769531 19.707031 20.636719 19.566406 20.636719 C 19.34375 20.632812 19.132812 20.648438 18.976562 20.835938 C 18.9375 20.878906 18.898438 20.921875 18.835938 20.871094 C 18.984375 20.539062 19.25 20.378906 19.625 20.484375 C 19.875 20.554688 19.972656 20.433594 20.085938 20.273438 C 20.128906 20.21875 20.132812 20.136719 20.21875 20.105469 C 20.316406 20.25 20.1875 20.355469 20.125 20.539062 C 20.296875 20.355469 20.523438 20.316406 20.515625 20.0625 C 20.511719 19.875 20.515625 19.6875 20.515625 19.441406 C 20.839844 19.765625 20.679688 20.089844 20.660156 20.398438 C 20.671875 20.398438 20.679688 20.398438 20.6875 20.394531 C 21.304688 20.144531 21.339844 19.632812 21.273438 19.082031 C 21.261719 18.972656 21.257812 18.882812 21.386719 18.828125 C 21.0625 18.765625 20.988281 18.472656 20.796875 18.308594 C 20.464844 18.019531 20.253906 17.605469 19.835938 17.402344 C 19.734375 17.351562 19.660156 17.246094 19.550781 17.175781 C 19.75 17.441406 19.875 17.734375 19.964844 18.046875 C 20.0625 18.390625 19.96875 18.675781 19.695312 18.933594 C 20.191406 19.164062 20.121094 19.601562 20.105469 20.007812 C 20.097656 20.171875 20.042969 20.335938 19.832031 20.425781 C 19.851562 20.28125 19.949219 20.1875 19.941406 20.066406 C 19.9375 19.996094 19.964844 19.921875 19.902344 19.863281 C 19.867188 19.832031 19.824219 19.847656 19.792969 19.875 C 19.710938 19.941406 19.855469 20 19.792969 20.078125 C 19.703125 20.136719 19.589844 20.105469 19.480469 20.109375 C 18.9375 20.132812 18.71875 20.480469 18.753906 21.023438 C 18.78125 21.488281 18.816406 21.984375 18.5625 22.425781 C 18.492188 22.546875 18.414062 22.664062 18.253906 22.652344 C 18.105469 22.644531 18.039062 22.53125 17.976562 22.414062 C 17.886719 22.238281 17.90625 22.023438 17.800781 21.847656 C 17.765625 21.792969 17.835938 21.730469 17.867188 21.679688 C 18.238281 21.125 18.34375 20.550781 17.992188 19.941406 C 17.960938 19.894531 17.929688 19.839844 17.929688 19.789062 C 17.933594 19.640625 17.894531 19.527344 17.726562 19.480469 C 17.855469 19.273438 18.027344 19.144531 18.1875 18.976562 C 17.960938 18.746094 17.894531 18.480469 17.914062 18.152344 C 17.964844 17.21875 17.734375 16.328125 17.402344 15.421875 C 17.667969 15.320312 17.886719 15.445312 18.097656 15.582031 C 18.386719 15.777344 18.445312 15.957031 18.355469 16.324219 C 18.792969 16.410156 18.933594 16.960938 19.414062 16.964844 C 19.347656 16.84375 19.269531 16.6875 19.203125 16.523438 C 19.160156 16.421875 19.089844 16.316406 18.929688 16.335938 C 18.820312 16.351562 18.777344 16.253906 18.746094 16.160156 C 18.808594 16.132812 18.835938 16.175781 18.871094 16.1875 C 19.183594 16.289062 19.261719 16.238281 19.320312 15.917969 C 19.449219 15.195312 19.398438 14.484375 19.257812 13.773438 C 19.148438 13.230469 18.816406 12.847656 18.359375 12.578125 C 17.726562 12.203125 17.035156 12.128906 16.320312 12.277344 C 16.1875 12.304688 16.175781 12.3125 16.046875 12.410156 C 16.039062 12.515625 16.132812 12.554688 16.1875 12.617188 C 16.765625 13.25 17.226562 13.960938 17.550781 14.753906 C 17.628906 14.941406 17.726562 15.085938 17.941406 15.132812 C 18.179688 15.1875 18.328125 15.382812 18.507812 15.523438 C 18.605469 15.597656 18.542969 15.691406 18.484375 15.777344 C 18.453125 15.765625 18.421875 15.765625 18.414062 15.75 C 18.15625 15.3125 17.738281 15.21875 17.28125 15.214844 C 17.027344 15.210938 16.796875 15.175781 16.625 14.941406 C 16.777344 14.882812 16.863281 14.988281 16.96875 15.003906 C 17.039062 15.011719 17.113281 15.058594 17.171875 14.992188 C 17.226562 14.929688 17.195312 14.855469 17.171875 14.785156 C 17.039062 14.421875 16.859375 14.085938 16.648438 13.761719 C 16.417969 13.402344 16.144531 13.078125 15.863281 12.761719 C 15.714844 12.597656 15.613281 12.601562 15.460938 12.773438 C 14.988281 13.304688 14.820312 13.960938 14.679688 14.628906 C 14.523438 15.394531 14.5 16.171875 14.492188 16.945312 C 14.484375 17.523438 14.445312 18.085938 14.371094 18.660156 C 14.324219 18.996094 14.269531 19.363281 14.308594 19.738281 C 14.5625 19.707031 14.675781 19.578125 14.703125 19.351562 C 14.71875 19.347656 14.738281 19.332031 14.746094 19.339844 C 15.019531 19.558594 15.429688 19.492188 15.683594 19.761719 C 15.800781 19.886719 15.992188 19.976562 15.929688 20.207031 C 15.910156 20.265625 15.960938 20.292969 16 20.320312 C 16.078125 20.375 16.15625 20.433594 16.238281 20.484375 C 17.15625 21.023438 17.300781 21.90625 17.265625 22.847656 C 17.246094 23.285156 16.945312 23.503906 16.582031 23.425781 C 16.535156 23.417969 16.480469 23.40625 16.453125 23.375 C 16.058594 22.925781 15.65625 22.480469 15.378906 21.941406 C 15.652344 22.105469 15.792969 22.394531 16.019531 22.59375 C 16.007812 22.375 15.984375 22.363281 15.816406 22.230469 C 15.542969 22.019531 15.371094 21.707031 15.089844 21.503906 C 14.945312 21.398438 14.824219 21.261719 14.660156 21.199219 C 14.503906 21.140625 14.515625 20.980469 14.417969 20.890625 C 14.242188 20.71875 14.0625 20.546875 13.832031 20.441406 C 13.730469 20.394531 13.605469 20.332031 13.695312 20.167969 C 14.027344 19.558594 14.078125 18.886719 14.128906 18.214844 C 14.148438 17.976562 14.144531 17.734375 14.179688 17.496094 C 14.21875 17.273438 14.113281 17.175781 13.929688 17.101562 C 13.828125 17.0625 13.722656 17.023438 13.710938 16.863281 C 13.910156 16.871094 13.972656 17.136719 14.183594 17.0625 C 14.226562 16.546875 14.261719 16.011719 14.320312 15.484375 C 14.398438 14.765625 14.492188 14.050781 14.78125 13.378906 C 14.914062 13.074219 15.078125 12.792969 15.3125 12.558594 C 15.433594 12.433594 15.421875 12.34375 15.296875 12.242188 C 15.042969 12.046875 14.792969 11.847656 14.546875 11.644531 C 14.40625 11.53125 14.300781 11.554688 14.171875 11.671875 C 13.683594 12.117188 13.265625 12.625 12.84375 13.128906 C 12.417969 13.636719 12.050781 14.1875 11.710938 14.757812 C 11.574219 14.988281 11.613281 15.15625 11.851562 15.265625 C 12.03125 15.351562 12.132812 15.441406 11.988281 15.648438 C 11.902344 15.777344 12.011719 15.886719 12.234375 15.875 C 12.460938 15.859375 12.578125 15.957031 12.621094 16.183594 C 12.042969 16.1875 11.53125 15.941406 11.039062 15.730469 C 10.589844 15.539062 10.148438 15.421875 9.667969 15.386719 C 9.988281 15.210938 10.144531 14.886719 10.394531 14.65625 C 10.636719 14.433594 10.746094 14.417969 11.035156 14.574219 C 11.136719 14.5625 11.042969 14.453125 11.152344 14.410156 C 11.398438 14.570312 11.558594 14.402344 11.703125 14.1875 C 12.371094 13.203125 13.085938 12.261719 13.957031 11.445312 C 13.976562 11.429688 13.984375 11.40625 14.015625 11.355469 C 13.761719 11.128906 13.445312 11.023438 13.136719 10.902344 C 13.082031 10.878906 13.03125 10.933594 12.996094 10.976562 C 12.332031 11.710938 11.457031 12.011719 10.515625 12.179688 C 10.019531 12.269531 9.527344 12.367188 9.054688 12.558594 C 8.476562 12.789062 8.113281 13.171875 8.035156 13.804688 C 8.015625 13.96875 7.972656 14.132812 7.953125 14.300781 C 7.925781 14.535156 8.109375 14.679688 8.316406 14.574219 C 8.542969 14.460938 8.804688 14.484375 9.027344 14.363281 C 9.136719 14.300781 9.199219 14.382812 9.257812 14.46875 C 9.492188 14.816406 9.628906 14.820312 9.886719 14.484375 C 9.984375 14.363281 10.058594 14.21875 10.183594 14.121094 C 10.207031 14.140625 10.226562 14.148438 10.226562 14.15625 C 10.175781 14.613281 9.679688 15.082031 9.226562 15.105469 C 8.941406 15.121094 8.652344 15.128906 8.367188 15.160156 C 7.824219 15.21875 7.40625 15.53125 7.011719 15.878906 C 7 15.890625 6.992188 15.90625 6.984375 15.917969 C 6.917969 16.042969 6.851562 16.167969 6.964844 16.296875 C 7.074219 16.417969 7.164062 16.273438 7.28125 16.234375 C 7.273438 16.378906 7.121094 16.464844 7.191406 16.617188 C 7.308594 16.585938 7.378906 16.457031 7.515625 16.445312 C 7.480469 16.78125 7.039062 16.910156 7.113281 17.289062 C 7.101562 17.058594 7.324219 17.121094 7.425781 17.03125 C 7.863281 16.648438 8.375 16.382812 8.9375 16.226562 C 9.125 16.175781 9.292969 16.191406 9.429688 16.324219 C 9.628906 16.511719 9.863281 16.480469 10.148438 16.472656 C 9.898438 16.3125 9.617188 16.292969 9.460938 16.070312 C 9.910156 15.828125 10.523438 15.773438 10.898438 16.109375 C 10.953125 16.160156 11.011719 16.195312 11.09375 16.15625 C 11.320312 16.042969 11.542969 16.125 11.738281 16.21875 C 11.902344 16.292969 12.171875 16.1875 12.207031 16.480469 C 12.199219 16.484375 12.183594 16.5 12.175781 16.496094 C 11.734375 16.339844 11.703125 16.367188 11.773438 16.808594 C 11.789062 16.914062 11.78125 17.015625 11.71875 17.105469 C 11.582031 17.300781 11.652344 17.429688 11.84375 17.53125 C 11.992188 17.609375 12.113281 17.730469 12.210938 17.867188 C 12.347656 18.058594 12.417969 18.261719 12.359375 18.5 C 12.335938 18.601562 12.316406 18.703125 12.308594 18.808594 C 12.292969 19.054688 12.386719 19.140625 12.636719 19.121094 C 12.894531 19.097656 13.09375 19.230469 13.136719 19.453125 C 13.160156 19.574219 13.140625 19.613281 12.898438 19.898438 C 12.71875 19.773438 12.625 19.574219 12.503906 19.410156 C 12.390625 19.246094 12.296875 19.21875 12.164062 19.351562 C 12.003906 19.507812 11.824219 19.527344 11.644531 19.410156 C 11.160156 19.09375 10.589844 19 10.066406 18.78125 C 9.894531 18.710938 9.773438 18.605469 9.679688 18.441406 C 9.523438 18.15625 9.183594 18.019531 8.808594 18.09375 C 8.53125 18.148438 8.277344 18.308594 8.28125 18.605469 C 8.289062 18.941406 8.125 19.207031 8.050781 19.507812 C 8.011719 19.664062 8.082031 19.820312 8.0625 20.035156 C 7.871094 19.699219 7.886719 19.410156 8.003906 19.117188 C 8.042969 19.023438 8.101562 18.933594 8.109375 18.828125 C 8.148438 18.46875 8 18.269531 7.570312 18.117188 C 7.449219 18.484375 7.675781 18.730469 7.898438 19.011719 C 7.570312 18.921875 7.414062 18.71875 7.390625 18.410156 C 7.390625 18.378906 7.398438 18.34375 7.390625 18.3125 C 7.363281 18.210938 7.492188 18.0625 7.308594 18.007812 C 7.222656 17.984375 7.195312 18.039062 7.125 18.285156 C 7.148438 18.082031 6.898438 17.9375 7.03125 17.707031 C 7.082031 17.617188 7.003906 17.535156 6.960938 17.464844 C 6.871094 17.3125 6.855469 17.164062 6.941406 17.007812 C 7.042969 16.820312 6.992188 16.65625 6.863281 16.503906 C 6.660156 16.265625 6.664062 16.003906 6.882812 15.777344 C 6.972656 15.6875 7.066406 15.59375 7.175781 15.53125 C 7.394531 15.414062 7.460938 15.246094 7.460938 15.003906 C 7.464844 14.429688 6.996094 14.058594 6.429688 14.21875 C 6.179688 14.289062 5.957031 14.402344 5.773438 14.597656 C 5.5 14.894531 5.199219 15.160156 4.816406 15.308594 C 4.628906 15.382812 4.433594 15.457031 4.222656 15.339844 C 4.304688 15.21875 4.441406 15.261719 4.527344 15.191406 C 3.6875 14.90625 3.195312 14.320312 3.007812 13.464844 C 2.980469 13.339844 2.929688 13.214844 2.925781 13.089844 C 2.910156 12.746094 3.050781 12.476562 3.339844 12.277344 C 3.734375 12.003906 3.722656 11.773438 3.328125 11.515625 C 3.1875 11.421875 3.039062 11.332031 2.960938 11.175781 C 2.910156 11.078125 2.839844 10.984375 2.90625 10.867188 C 2.992188 10.859375 3.011719 10.929688 3.054688 10.972656 C 3.152344 11.070312 3.222656 11.195312 3.410156 11.140625 C 3.480469 11.121094 3.585938 11.234375 3.675781 11.285156 C 3.75 11.332031 3.824219 11.375 3.886719 11.414062 C 4.03125 11.382812 4.023438 11.199219 4.207031 11.1875 C 4.132812 11.445312 4.203125 11.6875 4.226562 11.933594 C 4.246094 12.152344 4.078125 12.328125 3.910156 12.476562 C 3.671875 12.695312 3.695312 12.796875 3.828125 13.089844 C 3.945312 13.34375 4.070312 13.609375 4.074219 13.917969 C 3.773438 13.59375 3.605469 13.195312 3.425781 12.8125 C 3.34375 12.96875 3.417969 13.167969 3.308594 13.339844 C 3.15625 13.191406 3.261719 13.027344 3.246094 12.875 C 3.214844 12.625 3.257812 12.554688 3.515625 12.527344 C 3.820312 12.488281 4.097656 12.191406 4.066406 11.90625 C 4.050781 11.769531 4.039062 11.640625 4.066406 11.507812 C 3.746094 11.578125 3.515625 11.371094 3.195312 11.277344 C 3.324219 11.363281 3.410156 11.414062 3.492188 11.472656 C 3.796875 11.699219 3.796875 12.117188 3.488281 12.320312 C 3.207031 12.507812 3.023438 12.753906 3.050781 13.097656 C 3.082031 13.492188 3.207031 13.867188 3.429688 14.199219 C 3.65625 14.539062 3.921875 14.835938 4.363281 14.882812 C 4.441406 14.894531 4.484375 14.949219 4.542969 14.992188 C 4.660156 15.078125 4.824219 15.15625 4.984375 15.066406 C 5.292969 14.898438 5.539062 14.652344 5.75 14.367188 C 5.582031 14.503906 5.363281 14.527344 5.175781 14.625 C 5.039062 14.699219 4.925781 14.707031 4.855469 14.523438 C 4.785156 14.339844 4.679688 14.171875 4.589844 13.992188 C 4.40625 14.046875 4.234375 14.089844 4.085938 13.941406 M 20.816406 8.992188 C 20.816406 8.992188 20.820312 8.992188 20.816406 8.957031 C 20.746094 8.679688 20.566406 8.476562 20.363281 8.296875 C 20.097656 8.070312 20.023438 8.09375 19.871094 8.394531 C 19.867188 8.402344 19.84375 8.402344 19.808594 8.410156 C 19.632812 8.042969 19.332031 7.816406 18.914062 7.691406 C 18.957031 7.871094 19.101562 8.003906 19.039062 8.199219 C 18.789062 8.117188 18.863281 7.757812 18.601562 7.699219 C 18.601562 7.90625 18.515625 7.902344 18.390625 7.789062 C 18.3125 7.71875 18.238281 7.648438 18.140625 7.605469 C 17.835938 7.472656 17.589844 7.636719 17.617188 7.953125 C 16.382812 7.726562 15.296875 8.234375 15.191406 9.085938 C 15.6875 9.320312 15.714844 9.316406 16.070312 8.941406 C 16.082031 8.929688 16.09375 8.917969 16.101562 8.90625 C 16.609375 8.371094 17.222656 8.203125 17.9375 8.335938 C 18.433594 8.425781 18.90625 8.558594 19.25 8.945312 C 19.3125 8.902344 19.285156 8.871094 19.285156 8.84375 C 19.28125 8.800781 19.273438 8.761719 19.355469 8.703125 C 19.695312 9.441406 20.484375 9.558594 21.023438 10.027344 C 21.046875 9.6875 20.605469 9.75 20.5625 9.457031 C 20.726562 9.472656 20.792969 9.660156 20.992188 9.625 C 20.949219 9.40625 20.910156 9.191406 20.816406 8.992188 M 11.40625 4.496094 C 11.238281 4.457031 11.128906 4.519531 11.058594 4.675781 C 10.992188 4.8125 10.90625 4.9375 10.84375 5.078125 C 10.667969 5.453125 10.445312 5.828125 10.554688 6.265625 C 10.699219 6.828125 10.734375 7.402344 10.734375 7.976562 C 10.734375 8.074219 10.742188 8.167969 10.828125 8.238281 C 11.007812 8.378906 11.164062 8.558594 11.382812 8.65625 C 11.460938 8.691406 11.550781 8.738281 11.484375 8.898438 C 11.351562 8.660156 11.210938 8.691406 11.054688 8.832031 C 11.019531 8.867188 10.949219 8.859375 10.894531 8.867188 C 10.832031 8.875 10.785156 8.902344 10.78125 8.96875 C 10.773438 9.167969 10.824219 9.355469 10.960938 9.503906 C 11.082031 9.632812 11.191406 9.496094 11.304688 9.453125 C 11.355469 9.433594 11.410156 9.417969 11.464844 9.398438 C 11.703125 9.316406 11.941406 9.234375 12.191406 9.144531 C 12.167969 9.070312 12.160156 9.015625 12.140625 8.964844 C 12.03125 8.699219 11.898438 8.4375 11.808594 8.167969 C 11.707031 7.863281 11.847656 7.6875 12.171875 7.679688 C 12.265625 7.675781 12.363281 7.679688 12.460938 7.679688 C 12.464844 7.660156 12.46875 7.640625 12.472656 7.621094 C 12.21875 7.625 12 7.535156 11.800781 7.324219 C 11.824219 7.5625 11.664062 7.667969 11.601562 7.824219 C 11.5625 7.4375 11.523438 7.054688 11.484375 6.644531 C 11.628906 6.707031 11.574219 6.859375 11.664062 6.925781 C 11.59375 6.339844 11.578125 5.761719 11.679688 5.144531 C 11.464844 5.332031 11.5 5.578125 11.355469 5.78125 C 11.292969 5.492188 11.46875 5.28125 11.488281 4.996094 C 11.285156 5.242188 11.226562 5.507812 11.09375 5.734375 C 11.035156 5.46875 11.207031 5.261719 11.25 5.023438 C 11.082031 5.246094 11.015625 5.515625 10.890625 5.757812 C 10.875 5.503906 10.953125 5.285156 11.070312 5.078125 C 11.046875 5.035156 10.949219 5.085938 10.96875 4.984375 C 11.007812 4.792969 11.21875 4.667969 11.394531 4.761719 C 12.085938 5.128906 12.738281 5.523438 12.789062 6.4375 C 12.804688 6.703125 12.925781 6.785156 13.246094 6.882812 C 12.832031 6.589844 12.734375 6.199219 12.722656 5.765625 C 12.714844 5.386719 12.644531 5.019531 12.460938 4.679688 C 12.40625 4.570312 12.347656 4.476562 12.207031 4.488281 C 12.21875 4.585938 12.359375 4.648438 12.277344 4.789062 C 12.113281 4.585938 11.9375 4.433594 11.6875 4.433594 C 11.601562 4.476562 11.695312 4.546875 11.636719 4.589844 C 11.59375 4.585938 11.546875 4.582031 11.480469 4.554688 C 11.464844 4.539062 11.449219 4.527344 11.40625 4.496094 M 24.832031 17.761719 C 24.605469 18.085938 24.414062 18.183594 24.191406 18.09375 C 24.175781 18.085938 24.167969 18.058594 24.160156 18.042969 C 24.195312 17.957031 24.28125 18.007812 24.324219 17.960938 C 24.167969 17.894531 23.96875 17.929688 23.820312 17.746094 C 24.046875 17.757812 24.234375 17.773438 24.425781 17.78125 C 24.539062 17.789062 24.59375 17.714844 24.640625 17.625 C 24.695312 17.511719 24.589844 17.515625 24.542969 17.480469 C 24.570312 17.410156 24.675781 17.40625 24.675781 17.296875 C 24.578125 17.277344 24.476562 17.234375 24.378906 17.238281 C 23.953125 17.261719 23.742188 17.132812 23.597656 16.738281 C 23.574219 16.679688 23.578125 16.605469 23.5 16.578125 C 23.363281 16.617188 23.417969 16.796875 23.300781 16.863281 C 23.140625 16.730469 22.992188 16.5625 22.746094 16.640625 C 22.726562 16.648438 22.695312 16.613281 22.671875 16.59375 C 22.457031 16.375 22.429688 16.15625 22.566406 15.871094 C 22.628906 15.734375 22.832031 15.628906 22.675781 15.433594 C 22.664062 15.421875 22.703125 15.363281 22.726562 15.332031 C 22.988281 14.988281 23.332031 14.824219 23.753906 14.851562 C 23.824219 14.910156 23.726562 15.011719 23.867188 15.0625 C 24.011719 14.820312 24.28125 14.714844 24.519531 14.5625 C 24.6875 14.457031 24.824219 14.4375 24.964844 14.585938 C 25.148438 14.421875 25.34375 14.445312 25.542969 14.496094 C 25.550781 14.605469 25.476562 14.621094 25.394531 14.664062 C 25.308594 14.679688 25.191406 14.636719 25.164062 14.769531 C 25.148438 14.84375 25.132812 14.929688 25.265625 14.957031 C 25.351562 14.882812 25.382812 14.765625 25.46875 14.65625 C 25.570312 14.632812 25.667969 14.613281 25.746094 14.53125 C 25.796875 14.476562 25.898438 14.429688 25.941406 14.480469 C 26.132812 14.699219 26.316406 14.480469 26.5 14.511719 C 26.582031 14.15625 26.582031 14.15625 26.824219 13.828125 C 26.867188 13.769531 26.886719 13.699219 26.917969 13.640625 C 27.070312 13.367188 27.167969 13.09375 27.214844 12.777344 C 27.25 12.5625 27.25 12.429688 27.085938 12.261719 C 27.058594 12.460938 27.085938 12.632812 27.113281 12.804688 C 27.167969 13.160156 27.054688 13.367188 26.777344 13.46875 C 26.734375 13.390625 26.847656 13.34375 26.8125 13.269531 C 26.507812 13.632812 26.507812 13.632812 25.980469 13.679688 C 25.933594 13.683594 25.882812 13.699219 25.847656 13.726562 C 25.648438 13.902344 25.425781 14.027344 25.183594 14.136719 C 25.003906 14.21875 24.445312 14.21875 24.304688 14.09375 C 24.277344 14.074219 24.28125 14.046875 24.273438 14.015625 C 24.253906 13.90625 23.90625 13.734375 23.855469 13.808594 C 23.765625 13.945312 23.644531 13.90625 23.535156 13.902344 C 23.300781 13.894531 23.09375 13.972656 22.894531 14.074219 C 22.816406 14.109375 22.753906 14.183594 22.644531 14.160156 C 22.65625 14.113281 22.667969 14.070312 22.683594 14.003906 C 22.136719 14.363281 21.875 14.878906 21.757812 15.472656 C 21.730469 15.613281 21.757812 15.789062 21.914062 15.871094 C 22.082031 15.960938 22.097656 15.765625 22.191406 15.714844 C 22.203125 15.707031 22.21875 15.714844 22.226562 15.714844 C 22.429688 16.257812 22.128906 16.640625 21.769531 16.980469 C 21.882812 17.074219 21.964844 16.949219 22.035156 17.039062 C 21.949219 17.191406 21.71875 17.207031 21.6875 17.410156 C 21.777344 17.476562 21.898438 17.339844 21.992188 17.480469 C 21.800781 17.601562 21.539062 17.628906 21.433594 17.859375 C 21.976562 17.945312 22.484375 17.800781 23.011719 17.691406 C 22.980469 17.738281 22.964844 17.761719 22.941406 17.792969 C 23.421875 17.964844 23.867188 18.210938 24.289062 18.511719 C 24.324219 18.378906 24.21875 18.296875 24.238281 18.195312 C 24.664062 18.214844 24.726562 18.171875 24.875 17.722656 C 24.910156 17.675781 24.945312 17.640625 24.996094 17.613281 C 25.191406 17.507812 25.253906 17.285156 25.296875 17.113281 C 25.382812 16.773438 25.140625 16.554688 24.863281 16.398438 C 24.773438 16.347656 24.667969 16.28125 24.578125 16.367188 C 24.480469 16.457031 24.570312 16.554688 24.621094 16.621094 C 24.863281 16.960938 24.898438 17.339844 24.832031 17.761719 M 23.058594 11.433594 C 23.199219 11.042969 23.484375 10.765625 23.792969 10.507812 C 23.933594 10.394531 24.089844 10.332031 24.277344 10.453125 C 24.351562 10.5 24.453125 10.558594 24.570312 10.542969 C 24.523438 10.328125 24.402344 10.230469 24.191406 10.246094 C 24.105469 10.25 24.015625 10.253906 23.929688 10.253906 C 23.554688 10.253906 23.277344 10.324219 23.074219 10.730469 C 22.765625 11.34375 22.492188 11.957031 22.363281 12.628906 C 22.335938 12.757812 22.285156 12.878906 22.167969 13.003906 C 22.117188 12.761719 22.191406 12.566406 22.234375 12.371094 C 22.277344 12.167969 22.332031 11.972656 22.378906 11.773438 C 22.203125 12.3125 21.9375 12.839844 22.144531 13.441406 C 22.320312 13.332031 22.539062 13.476562 22.667969 13.226562 C 22.699219 13.441406 22.542969 13.59375 22.644531 13.773438 C 22.933594 13.648438 23.285156 13.621094 23.292969 13.1875 C 23.292969 13.101562 23.375 13.015625 23.433594 12.941406 C 23.679688 12.617188 24 12.382812 24.359375 12.191406 C 24.609375 12.058594 24.855469 12.097656 25.113281 12.113281 C 25.109375 12.257812 24.964844 12.261719 24.925781 12.351562 C 25.222656 12.355469 25.421875 12.070312 25.777344 12.148438 C 26.027344 12.203125 26.246094 11.777344 26.582031 11.90625 C 26.859375 11.304688 26.835938 10.488281 26.511719 9.847656 C 26.582031 10.304688 26.484375 10.730469 26.277344 11.136719 C 26.210938 11.125 26.148438 11.050781 26.085938 11.15625 C 26.023438 11.265625 25.933594 11.363281 25.84375 11.453125 C 25.523438 11.789062 25.109375 11.855469 24.722656 11.609375 C 24.191406 11.265625 23.652344 11.105469 23.058594 11.433594 M 15.324219 11.8125 C 15.425781 11.894531 15.523438 11.972656 15.621094 12.058594 C 15.710938 12.132812 15.792969 12.148438 15.90625 12.097656 C 16.480469 11.835938 17.074219 11.867188 17.671875 11.988281 C 18.03125 12.058594 18.359375 12.226562 18.726562 12.394531 C 18.703125 12.3125 18.695312 12.273438 18.679688 12.242188 C 18.296875 11.515625 17.757812 10.917969 17.101562 10.429688 C 17.019531 10.371094 16.933594 10.351562 16.832031 10.363281 C 16.085938 10.445312 15.433594 10.746094 14.820312 11.160156 C 14.761719 11.199219 14.691406 11.234375 14.699219 11.34375 C 14.890625 11.488281 15.09375 11.640625 15.324219 11.8125 M 9.523438 11.132812 C 9.164062 11.488281 8.84375 11.863281 8.609375 12.386719 C 9.398438 12 10.203125 11.894531 10.992188 11.722656 C 11.449219 11.625 11.882812 11.46875 12.277344 11.207031 C 12.445312 11.09375 12.609375 10.964844 12.707031 10.785156 C 12.65625 10.699219 12.578125 10.695312 12.511719 10.671875 C 12.011719 10.484375 11.484375 10.441406 10.957031 10.394531 C 10.511719 10.355469 10.140625 10.496094 9.835938 10.820312 C 9.746094 10.921875 9.644531 11.011719 9.523438 11.132812 M 8.6875 10.3125 C 8.765625 10.238281 8.789062 10.15625 8.753906 10.109375 C 8.921875 9.980469 9.179688 10.054688 9.273438 9.839844 C 9.335938 9.707031 9.375 9.621094 9.535156 9.664062 C 9.472656 9.535156 9.402344 9.433594 9.371094 9.320312 C 9.324219 9.136719 9.226562 9.046875 9.039062 9 C 8.824219 8.945312 8.585938 8.703125 8.507812 8.507812 C 8.851562 8.660156 9.121094 9.070312 9.542969 8.734375 C 9.457031 8.558594 9.5 8.40625 9.683594 8.28125 C 9.851562 8.164062 9.960938 8.265625 10.070312 8.386719 C 10.300781 8.652344 10.746094 8.769531 11.03125 8.652344 C 10.933594 8.558594 10.8125 8.480469 10.742188 8.367188 C 10.535156 8.035156 10.285156 7.921875 9.933594 8.15625 C 9.917969 8.171875 9.886719 8.183594 9.867188 8.175781 C 9.589844 8.074219 9.515625 8.304688 9.394531 8.460938 C 9.355469 8.511719 9.347656 8.597656 9.25 8.609375 C 9.265625 8.496094 9.34375 8.398438 9.21875 8.316406 C 9.046875 8.203125 8.878906 8.105469 8.671875 8.222656 C 8.679688 8.3125 8.808594 8.320312 8.785156 8.421875 C 8.699219 8.449219 8.628906 8.394531 8.558594 8.363281 C 8.25 8.230469 8.078125 8.304688 7.988281 8.628906 C 7.847656 9.140625 7.917969 9.644531 8.039062 10.144531 C 8.105469 10.425781 8.300781 10.597656 8.546875 10.71875 C 8.6875 10.785156 8.804688 10.785156 8.839844 10.578125 C 8.878906 10.359375 9.03125 10.320312 9.222656 10.386719 C 9.304688 10.414062 9.382812 10.460938 9.457031 10.503906 C 9.574219 10.570312 9.628906 10.515625 9.675781 10.40625 C 9.519531 10.277344 9.355469 10.183594 9.167969 10.191406 C 8.929688 10.203125 8.808594 10.390625 8.730469 10.621094 C 8.539062 10.449219 8.410156 10.296875 8.367188 10.050781 C 8.515625 10.121094 8.523438 10.296875 8.6875 10.3125 M 14.378906 11.089844 C 14.976562 10.65625 15.613281 10.285156 16.34375 10.039062 C 16.292969 9.980469 16.277344 9.949219 16.253906 9.933594 C 16.203125 9.898438 16.148438 9.859375 16.089844 9.832031 C 15.421875 9.496094 14.707031 9.359375 13.96875 9.296875 C 13.816406 9.28125 13.734375 9.359375 13.6875 9.5 C 13.578125 9.816406 13.488281 10.140625 13.34375 10.441406 C 13.308594 10.511719 13.289062 10.585938 13.375 10.628906 C 13.699219 10.785156 14 10.980469 14.378906 11.089844 M 18.078125 6.945312 C 18.046875 6.9375 18.015625 6.917969 17.988281 6.925781 C 17.644531 7.015625 17.304688 7.007812 16.96875 6.910156 C 16.910156 6.894531 16.859375 6.90625 16.808594 6.929688 C 16.152344 7.246094 15.453125 7.460938 14.882812 7.941406 C 14.675781 8.117188 14.414062 8.21875 14.121094 8.253906 C 13.925781 8.277344 13.726562 8.179688 13.511719 8.292969 C 13.605469 8.421875 13.617188 8.5625 13.652344 8.699219 C 13.679688 8.796875 13.621094 8.941406 13.792969 8.96875 C 13.933594 8.992188 14.011719 8.90625 14.085938 8.804688 C 14.378906 8.402344 14.773438 8.109375 15.195312 7.859375 C 15.40625 7.734375 15.640625 7.652344 15.867188 7.550781 C 15.351562 8.042969 14.640625 8.289062 14.25 8.964844 C 14.425781 8.953125 14.574219 9.105469 14.703125 8.9375 C 14.921875 8.65625 15.222656 8.464844 15.496094 8.246094 C 15.539062 8.210938 15.605469 8.191406 15.605469 8.113281 C 15.511719 8.105469 15.445312 8.214844 15.320312 8.132812 C 15.550781 7.929688 15.804688 7.816406 16.105469 7.738281 C 16.082031 7.804688 16.074219 7.839844 16.050781 7.898438 C 16.441406 7.675781 16.847656 7.648438 17.257812 7.636719 C 17.429688 7.632812 17.574219 7.59375 17.695312 7.5 C 17.550781 7.351562 17.390625 7.238281 17.179688 7.21875 C 17.5 7.039062 17.871094 7.339844 18.167969 7.0625 C 18.144531 7.027344 18.121094 6.996094 18.078125 6.945312 M 21.800781 11.996094 C 21.804688 12.035156 21.832031 12.070312 21.820312 12.082031 C 20.910156 11.285156 20.351562 10.222656 19.671875 9.230469 C 19.621094 9.355469 19.613281 9.441406 19.703125 9.542969 C 19.953125 9.839844 20.097656 10.195312 20.203125 10.566406 C 20.230469 10.667969 20.242188 10.773438 20.308594 10.859375 C 20.484375 11.097656 20.523438 11.410156 20.726562 11.632812 C 20.804688 11.722656 20.6875 11.769531 20.6875 11.851562 C 21 12.128906 21.386719 12.261719 21.773438 12.386719 C 21.90625 12.425781 21.964844 12.34375 21.992188 12.230469 C 22.066406 11.917969 22.175781 11.617188 22.292969 11.320312 C 22.316406 11.261719 22.355469 11.191406 22.292969 11.140625 C 22.105469 10.984375 22.078125 10.734375 21.933594 10.550781 C 21.8125 10.394531 21.785156 10.203125 21.792969 10.003906 C 21.792969 9.949219 21.824219 9.863281 21.796875 9.84375 C 21.609375 9.6875 21.679688 9.476562 21.660156 9.253906 C 21.585938 9.464844 21.59375 9.671875 21.496094 9.839844 C 21.367188 9.8125 21.363281 9.699219 21.304688 9.628906 C 21.21875 9.78125 21.210938 9.929688 21.253906 10.101562 C 21.398438 10.734375 21.574219 11.355469 21.800781 11.996094 M 18.867188 10.203125 C 18.734375 10.160156 18.601562 10.132812 18.480469 10.074219 C 18.242188 9.964844 18 9.851562 17.832031 9.636719 C 17.769531 9.554688 17.746094 9.46875 17.851562 9.414062 C 18.160156 9.253906 18.46875 9.089844 18.824219 9.300781 C 18.925781 9.363281 19.035156 9.425781 19.1875 9.390625 C 19.007812 9.15625 18.78125 9.070312 18.53125 9.027344 C 18.101562 8.957031 17.699219 9.007812 17.351562 9.292969 C 17.203125 9.414062 17.125 9.582031 17.089844 9.765625 C 17.0625 9.921875 17.214844 9.875 17.285156 9.917969 C 17.292969 9.921875 17.296875 9.929688 17.296875 9.9375 C 17.300781 10.210938 17.507812 10.113281 17.648438 10.128906 C 17.796875 10.144531 17.953125 10.132812 18.101562 10.164062 C 18.761719 10.304688 19.410156 10.476562 19.957031 10.90625 C 19.984375 10.929688 20.019531 10.957031 20.0625 10.933594 C 20.074219 10.589844 20.003906 10.492188 19.695312 10.414062 C 19.429688 10.347656 19.167969 10.277344 18.867188 10.203125 M 13.429688 9.554688 C 13.5 9.339844 13.363281 9.324219 13.210938 9.335938 C 12.460938 9.394531 11.757812 9.632812 11.089844 9.972656 C 11.058594 9.988281 11.015625 10.011719 11.046875 10.082031 C 11.339844 10.089844 11.648438 10.074219 11.941406 10.148438 C 12.234375 10.222656 12.527344 10.316406 12.816406 10.40625 C 12.933594 10.441406 13.007812 10.410156 13.074219 10.304688 C 13.214844 10.078125 13.300781 9.828125 13.429688 9.554688 M 17.386719 8.480469 C 16.84375 8.457031 16.484375 8.789062 16.136719 9.140625 C 16.085938 9.195312 15.972656 9.261719 16.0625 9.355469 C 16.160156 9.457031 16.238281 9.363281 16.304688 9.292969 C 16.472656 9.109375 16.65625 8.949219 16.875 8.828125 C 17.148438 8.675781 17.441406 8.691406 17.742188 8.699219 C 17.46875 8.789062 17.238281 9.007812 16.96875 9.042969 C 16.667969 9.078125 16.53125 9.273438 16.308594 9.453125 C 16.515625 9.5625 16.6875 9.65625 16.878906 9.757812 C 17.03125 9.222656 17.394531 8.980469 17.890625 8.851562 C 18.378906 8.71875 18.804688 8.820312 19.214844 9.089844 C 18.679688 8.699219 18.085938 8.492188 17.386719 8.480469 M 18.09375 16.617188 C 18.238281 17.214844 18.234375 17.828125 18.230469 18.445312 C 18.277344 18.433594 18.296875 18.433594 18.304688 18.425781 C 18.632812 18.054688 18.835938 17.613281 19.019531 17.160156 C 19.039062 17.109375 19.042969 17.039062 19 17 C 18.777344 16.808594 18.617188 16.546875 18.324219 16.441406 C 18.183594 16.394531 18.105469 16.421875 18.09375 16.617188 M 21.9375 14.503906 C 21.964844 14.429688 21.976562 14.339844 22.03125 14.285156 C 22.289062 14.027344 22.359375 13.804688 22.03125 13.519531 C 21.890625 13.394531 21.902344 13.136719 21.859375 12.933594 C 21.828125 12.78125 21.621094 12.660156 21.46875 12.710938 C 21.300781 12.773438 21.296875 12.96875 21.355469 13.050781 C 21.550781 13.3125 21.515625 13.628906 21.625 13.910156 C 21.699219 14.105469 21.761719 14.296875 21.707031 14.515625 C 21.683594 14.597656 21.695312 14.6875 21.792969 14.753906 C 21.871094 14.703125 21.890625 14.613281 21.9375 14.503906 M 7.53125 14.128906 C 7.515625 13.878906 7.648438 13.664062 7.6875 13.429688 C 7.699219 13.359375 7.730469 13.296875 7.652344 13.238281 C 7.539062 13.15625 7.183594 13.171875 7.144531 13.296875 C 7.089844 13.464844 6.960938 13.476562 6.84375 13.523438 C 6.617188 13.613281 6.425781 13.75 6.230469 13.890625 C 6.351562 14.132812 6.550781 14.027344 6.730469 14.027344 C 6.714844 13.980469 6.640625 13.945312 6.691406 13.921875 C 6.839844 13.855469 6.976562 13.914062 7.105469 13.980469 C 7.097656 14.058594 7.035156 14.023438 7 14.074219 C 7.175781 14.117188 7.277344 14.277344 7.433594 14.339844 C 7.503906 14.292969 7.5 14.21875 7.53125 14.128906 M 9.421875 9.03125 C 9.453125 9.238281 9.546875 9.402344 9.730469 9.53125 C 9.902344 9.335938 10.113281 9.246094 10.367188 9.265625 C 10.488281 9.273438 10.503906 9.207031 10.503906 9.097656 C 10.503906 8.796875 10.28125 8.726562 10.0625 8.628906 C 9.917969 8.867188 9.628906 8.851562 9.421875 9.03125 M 8.183594 11.75 C 8.085938 11.75 8.0625 11.671875 8.011719 11.613281 C 7.871094 11.441406 7.707031 11.550781 7.550781 11.59375 C 7.472656 11.617188 7.421875 11.65625 7.441406 11.75 C 7.488281 11.972656 7.5625 12.1875 7.726562 12.347656 C 7.820312 12.441406 7.96875 12.554688 8.09375 12.386719 C 8.210938 12.226562 8.292969 12.042969 8.386719 11.882812 C 8.335938 11.800781 8.269531 11.789062 8.183594 11.75 M 23.007812 16.296875 C 23.222656 16.035156 23.574219 15.875 23.621094 15.476562 C 23.632812 15.355469 23.636719 15.25 23.53125 15.179688 C 23.425781 15.109375 23.328125 15.164062 23.25 15.242188 C 22.917969 15.574219 22.859375 16.007812 22.824219 16.457031 C 22.875 16.410156 22.929688 16.363281 23.007812 16.296875 M 9.773438 9.734375 C 9.644531 9.832031 9.488281 9.90625 9.414062 10.082031 C 9.585938 10.144531 9.699219 10.378906 9.878906 10.28125 C 10.210938 10.101562 10.515625 9.871094 10.847656 9.652344 C 10.660156 9.488281 10.46875 9.453125 10.246094 9.507812 C 10.300781 9.636719 10.453125 9.667969 10.433594 9.835938 C 10.238281 9.648438 10.03125 9.625 9.773438 9.734375 M 21.285156 10.9375 C 21.207031 10.722656 21.203125 10.488281 21.097656 10.269531 C 20.941406 10.3125 20.789062 10.328125 20.644531 10.4375 C 20.894531 10.789062 21.109375 11.15625 21.484375 11.480469 C 21.402344 11.269531 21.347656 11.125 21.285156 10.9375 M 7.996094 17.503906 C 7.957031 17.40625 7.917969 17.308594 7.875 17.214844 C 7.832031 17.121094 7.796875 17.011719 7.652344 17.09375 C 7.53125 17.160156 7.429688 17.242188 7.511719 17.394531 C 7.632812 17.628906 7.847656 17.75 8.089844 17.863281 C 8.109375 17.714844 8.046875 17.628906 7.996094 17.503906 M 21.476562 18.511719 C 21.53125 18.609375 21.550781 18.722656 21.648438 18.792969 C 21.90625 18.558594 22.082031 18.277344 22.097656 18.070312 C 21.730469 18.160156 21.574219 18.265625 21.476562 18.511719 M 8.789062 10.867188 C 8.75 10.902344 8.679688 10.898438 8.660156 10.980469 C 8.769531 11.027344 8.792969 11.277344 8.984375 11.117188 C 9.125 10.996094 9.246094 10.847656 9.378906 10.707031 C 9.289062 10.609375 9.210938 10.597656 9.117188 10.660156 C 9.019531 10.726562 8.914062 10.785156 8.789062 10.867188 M 20.984375 17.246094 C 21.078125 17.195312 21.070312 17.09375 20.988281 17.085938 C 20.792969 17.066406 20.851562 16.941406 20.867188 16.847656 C 20.898438 16.691406 20.90625 16.539062 20.859375 16.390625 C 20.8125 16.632812 20.648438 16.839844 20.632812 17.089844 C 20.726562 17.175781 20.851562 17.183594 20.984375 17.246094 M 15.226562 7.042969 C 15.175781 7.164062 15.140625 7.289062 14.996094 7.351562 C 14.886719 7.402344 14.859375 7.511719 14.882812 7.636719 C 15.289062 7.511719 15.394531 7.328125 15.226562 7.042969 M 10.796875 17.320312 C 10.734375 17.222656 10.644531 17.207031 10.582031 17.296875 C 10.523438 17.386719 10.496094 17.503906 10.460938 17.609375 C 10.441406 17.667969 10.460938 17.71875 10.523438 17.746094 C 10.582031 17.773438 10.636719 17.75 10.671875 17.703125 C 10.753906 17.601562 10.816406 17.488281 10.796875 17.320312 M 17.953125 15.976562 C 18.007812 16.082031 17.96875 16.257812 18.160156 16.265625 C 18.339844 15.984375 18.257812 15.804688 17.9375 15.757812 C 17.898438 15.820312 17.945312 15.878906 17.953125 15.976562 M 20.835938 8.710938 C 20.851562 8.726562 20.867188 8.742188 20.882812 8.757812 C 20.886719 8.753906 20.894531 8.746094 20.894531 8.738281 C 20.898438 8.488281 20.746094 8.269531 20.480469 8.164062 C 20.632812 8.328125 20.738281 8.5 20.835938 8.710938 M 19.988281 7.871094 C 20.042969 7.914062 20.105469 7.941406 20.15625 7.878906 C 20.203125 7.820312 20.195312 7.746094 20.132812 7.675781 C 20.03125 7.6875 19.921875 7.699219 19.816406 7.707031 C 19.898438 7.722656 19.9375 7.777344 19.988281 7.871094 M 7.664062 17.785156 C 7.632812 18.019531 7.839844 18.003906 7.960938 18.074219 C 7.835938 17.925781 7.761719 17.726562 7.515625 17.617188 C 7.582031 17.695312 7.613281 17.730469 7.664062 17.785156 M 16.253906 5.582031 C 16.238281 5.628906 16.203125 5.703125 16.308594 5.671875 C 16.402344 5.644531 16.460938 5.574219 16.476562 5.464844 C 16.375 5.421875 16.308594 5.464844 16.253906 5.582031 Z M 16.253906 5.582031 "/>
<path style=" stroke:none;fill-rule:nonzero;fill:rgb(0%,0%,0%);fill-opacity:1;" d="M 14.25 22.484375 C 14.316406 22.632812 14.375 22.761719 14.390625 22.917969 C 14.300781 22.910156 14.304688 22.796875 14.203125 22.796875 C 14.140625 22.808594 14.140625 22.898438 14.089844 22.933594 C 14.109375 23.019531 14.179688 23.039062 14.226562 23.078125 C 14.507812 23.316406 14.703125 23.59375 14.65625 23.984375 C 14.644531 24.097656 14.644531 24.296875 14.585938 24.292969 C 14.382812 24.285156 14.238281 24.484375 14.011719 24.398438 C 13.5 24.203125 13.132812 23.886719 13.003906 23.335938 C 12.992188 23.285156 12.96875 23.234375 12.949219 23.183594 C 12.871094 23.207031 12.871094 23.273438 12.835938 23.3125 C 12.707031 23.457031 12.585938 23.433594 12.503906 23.261719 C 11.832031 21.863281 10.8125 20.882812 9.257812 20.527344 C 9.082031 20.488281 8.90625 20.429688 8.726562 20.378906 C 8.75 20.464844 8.886719 20.476562 8.859375 20.589844 C 8.402344 20.5625 8.332031 20.238281 8.199219 19.726562 C 8.25 19.683594 8.265625 19.75 8.316406 19.761719 C 8.363281 19.359375 8.570312 19.074219 8.964844 18.921875 C 8.921875 18.894531 8.894531 18.878906 8.871094 18.855469 C 8.863281 18.851562 8.867188 18.828125 8.867188 18.8125 C 8.949219 18.761719 9.039062 18.78125 9.117188 18.816406 C 9.28125 18.886719 9.453125 18.910156 9.628906 18.9375 C 9.78125 18.957031 9.910156 18.996094 9.894531 19.203125 C 9.886719 19.308594 9.960938 19.390625 10.046875 19.460938 C 10.792969 20.054688 11.628906 20.445312 12.582031 20.566406 C 12.65625 20.578125 12.726562 20.597656 12.777344 20.648438 C 13.09375 20.9375 13.386719 21.246094 13.472656 21.683594 C 13.503906 21.828125 13.5625 21.867188 13.699219 21.847656 C 13.675781 21.71875 13.546875 21.660156 13.550781 21.539062 C 13.792969 21.605469 13.910156 21.761719 14.25 22.484375 Z M 14.25 22.484375 "/>
<path style=" stroke:none;fill-rule:nonzero;fill:rgb(0%,0%,0%);fill-opacity:1;" d="M 10.664062 23.238281 C 10.601562 23.175781 10.566406 23.113281 10.492188 23.089844 C 10.484375 23.105469 10.46875 23.117188 10.46875 23.128906 C 10.503906 23.300781 10.585938 23.5 10.410156 23.613281 C 10.253906 23.71875 10.125 23.53125 9.988281 23.464844 C 9.296875 23.140625 8.917969 22.578125 8.773438 21.839844 C 8.730469 21.640625 8.710938 21.433594 8.472656 21.324219 C 8.859375 21.40625 9.214844 21.503906 9.5625 21.664062 C 9.59375 21.539062 9.480469 21.480469 9.488281 21.359375 C 9.554688 21.316406 9.640625 21.289062 9.738281 21.300781 C 10.15625 21.359375 10.554688 21.484375 10.90625 21.714844 C 11.1875 21.898438 11.378906 22.148438 11.351562 22.515625 C 11.34375 22.597656 11.410156 22.679688 11.4375 22.761719 C 11.476562 22.867188 11.535156 22.964844 11.496094 23.089844 C 11.359375 23.125 11.332031 22.960938 11.210938 22.933594 C 11.214844 23.140625 11.328125 23.332031 11.273438 23.527344 C 11.210938 23.585938 11.160156 23.539062 11.113281 23.519531 C 11.035156 23.574219 11.113281 23.667969 11.042969 23.730469 C 10.855469 23.621094 10.8125 23.398438 10.664062 23.238281 Z M 10.664062 23.238281 "/>
<path style=" stroke:none;fill-rule:nonzero;fill:rgb(0%,0%,0%);fill-opacity:1;" d="M 15.273438 18.191406 C 15.144531 18.121094 15.03125 18.0625 14.921875 18 C 14.84375 17.953125 14.789062 17.890625 14.789062 17.773438 C 15.113281 17.871094 15.355469 18.21875 15.710938 18.054688 C 16.09375 18.167969 16.277344 18.609375 16.628906 18.660156 C 16.882812 18.695312 17.039062 18.78125 17.230469 18.914062 C 17.382812 19.019531 17.597656 19.007812 17.78125 18.875 C 17.714844 19.210938 17.707031 19.167969 17.414062 19.140625 C 17.222656 19.121094 17.074219 19.117188 16.957031 18.921875 C 16.789062 19.066406 16.636719 18.960938 16.523438 18.863281 C 16.164062 18.539062 15.710938 18.402344 15.273438 18.191406 Z M 15.273438 18.191406 "/>
<path style=" stroke:none;fill-rule:nonzero;fill:rgb(0%,0%,0%);fill-opacity:1;" d="M 15.824219 19.519531 C 15.609375 19.382812 15.414062 19.246094 15.207031 19.125 C 15.011719 19.003906 14.863281 18.828125 14.660156 18.707031 C 14.914062 18.664062 15.09375 18.886719 15.339844 18.910156 C 15.5 18.59375 15.015625 18.503906 15.101562 18.222656 C 15.613281 18.464844 16.121094 19.039062 16.136719 19.398438 C 16.058594 19.472656 15.992188 19.378906 15.921875 19.378906 C 15.859375 19.410156 15.949219 19.519531 15.824219 19.519531 Z M 15.824219 19.519531 "/>
<path style=" stroke:none;fill-rule:nonzero;fill:rgb(0%,0%,0%);fill-opacity:1;" d="M 14.902344 22.324219 C 14.476562 22.203125 13.984375 21.601562 13.972656 21.175781 C 14.214844 21.414062 14.503906 21.535156 14.746094 21.722656 C 14.9375 21.871094 15.003906 22.078125 14.902344 22.324219 Z M 14.902344 22.324219 "/>
<path style=" stroke:none;fill-rule:nonzero;fill:rgb(0%,0%,0%);fill-opacity:1;" d="M 17.011719 19.441406 C 17.222656 19.480469 17.4375 19.507812 17.46875 19.746094 C 17.492188 19.953125 17.730469 20.191406 17.410156 20.410156 C 17.300781 20.191406 17.105469 20.054688 16.933594 19.890625 C 16.832031 19.792969 16.828125 19.664062 16.824219 19.535156 C 16.816406 19.390625 16.902344 19.40625 17.011719 19.441406 Z M 17.011719 19.441406 "/>
<path style=" stroke:none;fill-rule:nonzero;fill:rgb(0%,0%,0%);fill-opacity:1;" d="M 21.464844 6.976562 C 21.480469 6.75 21.210938 6.699219 21.210938 6.476562 C 21.417969 6.515625 21.476562 6.746094 21.652344 6.808594 C 21.734375 6.839844 21.75 6.703125 21.855469 6.742188 C 21.910156 6.824219 21.828125 7.050781 22.125 6.964844 C 21.886719 7.460938 21.796875 7.945312 21.691406 8.425781 C 21.507812 7.957031 21.355469 7.496094 21.464844 6.976562 M 21.757812 7.605469 C 21.761719 7.441406 21.8125 7.296875 21.941406 7.164062 C 21.738281 7.226562 21.769531 6.933594 21.5625 6.972656 C 21.574219 7.304688 21.476562 7.644531 21.6875 8.011719 C 21.714844 7.859375 21.730469 7.753906 21.757812 7.605469 Z M 21.757812 7.605469 "/>
<path style=" stroke:none;fill-rule:nonzero;fill:rgb(0%,0%,0%);fill-opacity:1;" d="M 7.648438 19.359375 C 7.691406 19.355469 7.738281 19.34375 7.730469 19.390625 C 7.722656 19.421875 7.683594 19.453125 7.652344 19.476562 C 7.203125 19.824219 7.144531 20.144531 7.445312 20.636719 C 7.496094 20.722656 7.574219 20.800781 7.570312 20.914062 C 7.304688 20.832031 6.949219 20.359375 6.960938 20.109375 C 6.976562 19.757812 7.25 19.457031 7.648438 19.359375 Z M 7.648438 19.359375 "/>
<path style=" stroke:none;fill-rule:nonzero;fill:rgb(0%,0%,0%);fill-opacity:1;" d="M 25.335938 18.003906 C 25.351562 17.980469 25.371094 17.960938 25.375 17.964844 C 25.550781 18.058594 25.726562 18.492188 25.675781 18.695312 C 25.621094 18.90625 25.382812 19.058594 25.113281 19.046875 C 25.066406 19.046875 25.019531 19.03125 24.972656 19.027344 C 24.902344 19.015625 24.800781 19.113281 24.765625 18.996094 C 24.726562 18.871094 24.855469 18.847656 24.929688 18.800781 C 25.265625 18.597656 25.394531 18.351562 25.335938 18.003906 M 25.519531 18.558594 C 25.507812 18.503906 25.523438 18.433594 25.4375 18.398438 C 25.371094 18.570312 25.273438 18.71875 25.140625 18.859375 C 25.421875 18.898438 25.476562 18.855469 25.519531 18.558594 Z M 25.519531 18.558594 "/>
<path style=" stroke:none;fill-rule:nonzero;fill:rgb(0%,0%,0%);fill-opacity:1;" d="M 20.21875 17.9375 C 20.523438 18.230469 20.742188 18.554688 20.765625 18.980469 C 20.351562 18.890625 20.199219 18.710938 20.179688 18.3125 C 20.175781 18.195312 20.144531 18.078125 20.128906 17.960938 C 20.121094 17.878906 20.160156 17.882812 20.21875 17.9375 Z M 20.21875 17.9375 "/>
<path style=" stroke:none;fill-rule:nonzero;fill:rgb(0%,0%,0%);fill-opacity:1;" d="M 8.054688 6.703125 C 8.089844 6.367188 7.980469 6.089844 7.792969 5.816406 C 8.058594 5.777344 8.199219 5.90625 8.292969 6.089844 C 8.394531 6.277344 8.253906 6.769531 8.0625 6.964844 C 7.988281 6.886719 8.035156 6.800781 8.054688 6.703125 Z M 8.054688 6.703125 "/>
<path style=" stroke:none;fill-rule:nonzero;fill:rgb(0%,0%,0%);fill-opacity:1;" d="M 17.574219 21.605469 C 17.628906 21.269531 17.570312 20.960938 17.488281 20.628906 C 17.878906 20.851562 17.894531 21.746094 17.535156 22.125 C 17.507812 21.945312 17.535156 21.789062 17.574219 21.605469 Z M 17.574219 21.605469 "/>
<path style=" stroke:none;fill-rule:nonzero;fill:rgb(0%,0%,0%);fill-opacity:1;" d="M 11.691406 22.851562 C 11.679688 22.75 11.644531 22.664062 11.707031 22.585938 C 11.996094 22.828125 12.117188 23.1875 12.007812 23.488281 C 11.757812 23.429688 11.699219 23.3125 11.691406 22.851562 Z M 11.691406 22.851562 "/>
<path style=" stroke:none;fill-rule:nonzero;fill:rgb(0%,0%,0%);fill-opacity:1;" d="M 19.378906 21.351562 C 19.238281 21.570312 19.105469 21.777344 18.96875 21.992188 C 18.890625 21.683594 19.324219 20.960938 19.683594 20.8125 C 19.691406 21.054688 19.480469 21.164062 19.378906 21.351562 Z M 19.378906 21.351562 "/>
<path style=" stroke:none;fill-rule:nonzero;fill:rgb(0%,0%,0%);fill-opacity:1;" d="M 5.320312 11.761719 C 5.40625 11.601562 5.488281 11.457031 5.570312 11.316406 C 5.601562 11.632812 5.839844 11.894531 5.773438 12.21875 C 5.445312 12.132812 5.320312 12.011719 5.320312 11.761719 M 5.527344 11.976562 C 5.574219 12 5.640625 12.050781 5.660156 11.96875 C 5.691406 11.847656 5.644531 11.746094 5.527344 11.683594 C 5.429688 11.777344 5.421875 11.867188 5.527344 11.976562 Z M 5.527344 11.976562 "/>
<path style=" stroke:none;fill-rule:nonzero;fill:rgb(0%,0%,0%);fill-opacity:1;" d="M 7.75 20.085938 C 7.816406 20.230469 7.929688 20.308594 8.035156 20.394531 C 8.148438 20.492188 8.261719 20.59375 8.269531 20.761719 C 7.878906 20.679688 7.480469 20.152344 7.609375 19.863281 C 7.683594 19.917969 7.707031 20 7.75 20.085938 Z M 7.75 20.085938 "/>
<path style=" stroke:none;fill-rule:nonzero;fill:rgb(0%,0%,0%);fill-opacity:1;" d="M 24.625 12.902344 C 24.863281 13.0625 24.886719 13.214844 24.71875 13.398438 C 24.640625 13.480469 24.550781 13.554688 24.445312 13.617188 C 24.460938 13.386719 24.609375 13.164062 24.425781 12.964844 C 24.46875 12.855469 24.539062 12.871094 24.625 12.902344 Z M 24.625 12.902344 "/>
<path style=" stroke:none;fill-rule:nonzero;fill:rgb(0%,0%,0%);fill-opacity:1;" d="M 9.152344 21.082031 C 9.195312 21.15625 9.230469 21.214844 9.277344 21.300781 C 9.0625 21.296875 8.902344 21.226562 8.753906 21.121094 C 8.695312 21.078125 8.613281 21.015625 8.675781 20.929688 C 8.722656 20.859375 8.804688 20.839844 8.890625 20.863281 C 9 20.898438 9.078125 20.976562 9.152344 21.082031 Z M 9.152344 21.082031 "/>
<path style=" stroke:none;fill-rule:nonzero;fill:rgb(0%,0%,0%);fill-opacity:1;" d="M 7.699219 16.035156 C 7.5625 15.980469 7.628906 15.894531 7.683594 15.855469 C 7.835938 15.746094 8.011719 15.691406 8.257812 15.761719 C 8.082031 15.929688 7.910156 16 7.699219 16.035156 Z M 7.699219 16.035156 "/>
<path style=" stroke:none;fill-rule:nonzero;fill:rgb(0%,0%,0%);fill-opacity:1;" d="M 17.855469 22.601562 C 17.964844 22.59375 17.988281 22.683594 18.03125 22.746094 C 18.152344 22.914062 18.347656 22.902344 18.539062 22.945312 C 18.453125 23.066406 18.363281 23.101562 18.246094 23.0625 C 18.027344 22.988281 17.871094 22.859375 17.855469 22.601562 Z M 17.855469 22.601562 "/>
<path style=" stroke:none;fill-rule:nonzero;fill:rgb(0%,0%,0%);fill-opacity:1;" d="M 8.628906 15.761719 C 8.582031 15.730469 8.550781 15.710938 8.492188 15.667969 C 8.691406 15.589844 8.867188 15.554688 9.058594 15.554688 C 9.015625 15.839844 8.925781 15.882812 8.628906 15.761719 Z M 8.628906 15.761719 "/>
<path style=" stroke:none;fill-rule:nonzero;fill:rgb(0%,0%,0%);fill-opacity:1;" d="M 13.445312 16.539062 C 13.285156 16.535156 13.125 16.527344 12.96875 16.503906 C 12.875 16.492188 12.789062 16.449219 12.730469 16.339844 C 12.9375 16.324219 13.121094 16.417969 13.316406 16.375 C 13.386719 16.359375 13.425781 16.453125 13.445312 16.539062 Z M 13.445312 16.539062 "/>
<path style=" stroke:none;fill-rule:nonzero;fill:rgb(0%,0%,0%);fill-opacity:1;" d="M 15.554688 6.230469 C 15.441406 6.339844 15.335938 6.4375 15.207031 6.554688 C 15.183594 6.296875 15.324219 6.171875 15.480469 6.0625 C 15.515625 6.039062 15.558594 6.039062 15.589844 6.074219 C 15.640625 6.128906 15.605469 6.175781 15.554688 6.230469 Z M 15.554688 6.230469 "/>
<path style=" stroke:none;fill-rule:nonzero;fill:rgb(0%,0%,0%);fill-opacity:1;" d="M 20.789062 20.15625 C 20.746094 19.933594 20.738281 19.722656 20.792969 19.511719 C 20.929688 19.699219 20.953125 19.910156 20.914062 20.128906 C 20.90625 20.1875 20.855469 20.195312 20.789062 20.15625 Z M 20.789062 20.15625 "/>
<path style=" stroke:none;fill-rule:nonzero;fill:rgb(0%,0%,0%);fill-opacity:1;" d="M 17.546875 22.917969 C 17.539062 22.785156 17.445312 22.675781 17.550781 22.519531 C 17.699219 22.75 17.679688 23.003906 17.8125 23.269531 C 17.613281 23.183594 17.59375 23.050781 17.546875 22.917969 Z M 17.546875 22.917969 "/>
<path style=" stroke:none;fill-rule:nonzero;fill:rgb(0%,0%,0%);fill-opacity:1;" d="M 19.054688 21.210938 C 19.152344 20.996094 19.292969 20.835938 19.503906 20.746094 C 19.378906 20.929688 19.289062 21.140625 19.054688 21.210938 Z M 19.054688 21.210938 "/>
<path style=" stroke:none;fill-rule:nonzero;fill:rgb(0%,0%,0%);fill-opacity:1;" d="M 14.636719 18.992188 C 14.601562 18.929688 14.621094 18.898438 14.675781 18.910156 C 14.761719 18.925781 14.835938 18.972656 14.886719 19.046875 C 14.925781 19.105469 14.988281 19.160156 14.964844 19.238281 C 14.960938 19.257812 14.917969 19.28125 14.894531 19.285156 C 14.796875 19.292969 14.789062 19.214844 14.761719 19.148438 C 14.738281 19.09375 14.683594 19.050781 14.636719 18.992188 Z M 14.636719 18.992188 "/>
<path style=" stroke:none;fill-rule:nonzero;fill:rgb(0%,0%,0%);fill-opacity:1;" d="M 16.710938 19.183594 C 16.5 19.296875 16.46875 19.148438 16.402344 19 C 16.585938 18.953125 16.679688 19.007812 16.710938 19.183594 Z M 16.710938 19.183594 "/>
<path style=" stroke:none;fill-rule:nonzero;fill:rgb(0%,0%,0%);fill-opacity:1;" d="M 13.945312 20.742188 C 13.730469 20.820312 13.710938 20.640625 13.589844 20.511719 C 13.820312 20.480469 13.890625 20.597656 13.945312 20.742188 Z M 13.945312 20.742188 "/>
<path style=" stroke:none;fill-rule:nonzero;fill:rgb(0%,0%,0%);fill-opacity:1;" d="M 15.59375 6.800781 C 15.734375 6.898438 15.738281 7.027344 15.703125 7.210938 C 15.550781 7.074219 15.527344 6.949219 15.59375 6.800781 Z M 15.59375 6.800781 "/>
<path style=" stroke:none;fill-rule:nonzero;fill:rgb(0%,0%,0%);fill-opacity:1;" d="M 14.714844 23.128906 C 14.578125 23.027344 14.585938 22.902344 14.65625 22.71875 C 14.808594 22.855469 14.792969 22.984375 14.714844 23.128906 Z M 14.714844 23.128906 "/>
<path style=" stroke:none;fill-rule:nonzero;fill:rgb(0%,0%,0%);fill-opacity:1;" d="M 15.152344 22.429688 C 15.121094 22.328125 15.058594 22.246094 15.125 22.128906 C 15.234375 22.242188 15.261719 22.367188 15.289062 22.496094 C 15.207031 22.550781 15.1875 22.488281 15.152344 22.429688 Z M 15.152344 22.429688 "/>
<path style=" stroke:none;fill-rule:nonzero;fill:rgb(0%,0%,0%);fill-opacity:1;" d="M 17.710938 5.375 C 17.644531 5.421875 17.589844 5.441406 17.535156 5.347656 C 17.628906 5.257812 17.730469 5.230469 17.855469 5.285156 C 17.84375 5.386719 17.765625 5.339844 17.710938 5.375 Z M 17.710938 5.375 "/>
<path style=" stroke:none;fill-rule:nonzero;fill:rgb(0%,0%,0%);fill-opacity:1;" d="M 11.488281 4.566406 C 11.535156 4.632812 11.609375 4.664062 11.617188 4.761719 C 11.460938 4.757812 11.359375 4.667969 11.257812 4.601562 C 11.289062 4.5 11.347656 4.519531 11.417969 4.511719 C 11.449219 4.527344 11.464844 4.539062 11.488281 4.566406 Z M 11.488281 4.566406 "/>
<path style=" stroke:none;fill-rule:nonzero;fill:rgb(0%,0%,0%);fill-opacity:1;" d="M 25.859375 14.277344 C 26.109375 14.113281 26.351562 13.964844 26.609375 13.808594 C 26.617188 14.113281 26.121094 14.402344 25.859375 14.277344 Z M 25.859375 14.277344 "/>
<path style=" stroke:none;fill-rule:nonzero;fill:rgb(0%,0%,0%);fill-opacity:1;" d="M 22.585938 16.742188 C 22.65625 16.863281 22.773438 16.933594 22.8125 17.0625 C 22.550781 17.109375 22.328125 16.816406 22.351562 16.410156 C 22.441406 16.535156 22.507812 16.632812 22.585938 16.742188 Z M 22.585938 16.742188 "/>
<path style=" stroke:none;fill-rule:nonzero;fill:rgb(0%,0%,0%);fill-opacity:1;" d="M 23.898438 11.929688 C 23.800781 11.917969 23.722656 11.910156 23.671875 11.835938 C 23.851562 11.511719 24.480469 11.472656 24.792969 11.796875 C 24.484375 11.835938 24.195312 11.847656 23.898438 11.929688 Z M 23.898438 11.929688 "/>
<path style=" stroke:none;fill-rule:nonzero;fill:rgb(0%,0%,0%);fill-opacity:1;" d="M 23.246094 12.433594 C 23.332031 12.355469 23.386719 12.261719 23.582031 12.253906 C 23.261719 12.476562 23.195312 12.800781 23.007812 13.070312 C 22.902344 12.867188 22.921875 12.820312 23.246094 12.433594 Z M 23.246094 12.433594 "/>
<path style=" stroke:none;fill-rule:nonzero;fill:rgb(0%,0%,0%);fill-opacity:1;" d="M 26.578125 10.984375 C 26.636719 10.941406 26.671875 10.96875 26.660156 11.015625 C 26.621094 11.183594 26.539062 11.332031 26.363281 11.417969 C 26.433594 11.277344 26.5 11.136719 26.578125 10.984375 Z M 26.578125 10.984375 "/>
<path style=" stroke:none;fill-rule:nonzero;fill:rgb(0%,0%,0%);fill-opacity:1;" d="M 10.734375 6.738281 C 10.679688 6.480469 10.601562 6.242188 10.597656 5.992188 C 10.59375 5.765625 10.664062 5.566406 10.800781 5.375 C 10.890625 5.457031 10.839844 5.53125 10.824219 5.589844 C 10.757812 5.84375 10.765625 6.09375 10.835938 6.34375 C 10.867188 6.46875 10.886719 6.59375 10.875 6.722656 C 10.859375 6.839844 10.816406 6.875 10.734375 6.738281 Z M 10.734375 6.738281 "/>
<path style=" stroke:none;fill-rule:nonzero;fill:rgb(0%,0%,0%);fill-opacity:1;" d="M 11.007812 8.171875 C 11.03125 7.898438 11.03125 7.625 11.144531 7.367188 C 11.195312 7.640625 11.148438 7.898438 11.023438 8.160156 C 11.011719 8.171875 11.007812 8.171875 11.007812 8.171875 Z M 11.007812 8.171875 "/>
<path style=" stroke:none;fill-rule:nonzero;fill:rgb(0%,0%,0%);fill-opacity:1;" d="M 11.011719 8.175781 C 11.050781 8.210938 11.09375 8.25 11.128906 8.28125 C 11.222656 8.265625 11.207031 8.15625 11.300781 8.128906 C 11.363281 8.257812 11.300781 8.351562 11.21875 8.449219 C 11.097656 8.398438 10.984375 8.351562 10.996094 8.183594 C 11.007812 8.171875 11.011719 8.171875 11.011719 8.175781 Z M 11.011719 8.175781 "/>
<path style=" stroke:none;fill-rule:nonzero;fill:rgb(0%,0%,0%);fill-opacity:1;" d="M 20.816406 8.992188 C 20.796875 9.046875 20.753906 9.074219 20.714844 9.019531 C 20.574219 8.835938 20.441406 8.652344 20.332031 8.449219 C 20.570312 8.546875 20.675781 8.765625 20.808594 8.980469 C 20.820312 8.992188 20.816406 8.992188 20.816406 8.992188 Z M 20.816406 8.992188 "/>
<path style=" stroke:none;fill-rule:nonzero;fill:rgb(0%,0%,0%);fill-opacity:1;" d="M 10.542969 8.558594 C 10.496094 8.519531 10.457031 8.488281 10.46875 8.414062 C 10.609375 8.4375 10.75 8.453125 10.832031 8.609375 C 10.714844 8.6875 10.640625 8.605469 10.542969 8.558594 Z M 10.542969 8.558594 "/>
<path style=" stroke:none;fill-rule:nonzero;fill:rgb(0%,0%,0%);fill-opacity:1;" d="M 8.179688 9.617188 C 8.195312 9.734375 8.25 9.828125 8.203125 10.003906 C 8.109375 9.777344 8.101562 9.59375 8.085938 9.398438 C 8.183594 9.453125 8.160156 9.535156 8.179688 9.617188 Z M 8.179688 9.617188 "/>
<path style=" stroke:none;fill-rule:nonzero;fill:rgb(0%,0%,0%);fill-opacity:1;" d="M 21.589844 10.757812 C 21.558594 10.566406 21.457031 10.398438 21.546875 10.203125 C 21.683594 10.632812 21.851562 11.050781 21.984375 11.484375 C 21.742188 11.308594 21.664062 11.046875 21.589844 10.757812 Z M 21.589844 10.757812 "/>
<path style=" stroke:none;fill-rule:nonzero;fill:rgb(0%,0%,0%);fill-opacity:1;" d="M 21.140625 11.648438 C 21.269531 11.816406 21.5 11.847656 21.589844 12.050781 C 21.1875 12.035156 20.742188 11.566406 20.738281 11.144531 C 20.882812 11.3125 20.96875 11.507812 21.140625 11.648438 Z M 21.140625 11.648438 "/>
<path style=" stroke:none;fill-rule:nonzero;fill:rgb(0%,0%,0%);fill-opacity:1;" d="M 4.257812 14.433594 C 4.285156 14.488281 4.316406 14.53125 4.261719 14.585938 C 4.121094 14.527344 4.136719 14.308594 3.945312 14.28125 C 3.964844 14.375 4.085938 14.394531 4.085938 14.527344 C 3.851562 14.460938 3.765625 14.300781 3.679688 14.058594 C 3.917969 14.175781 4.160156 14.171875 4.257812 14.433594 Z M 4.257812 14.433594 "/>
</g>
</svg>
