<?xml version="1.0" encoding="UTF-8"?>
<svg xmlns="http://www.w3.org/2000/svg" xmlns:xlink="http://www.w3.org/1999/xlink" width="67px" height="67px" viewBox="0 0 67 67" version="1.1">
<g id="surface1">
<path style=" stroke:none;fill-rule:nonzero;fill:rgb(0%,0%,0%);fill-opacity:1;" d="M 14.128906 41.632812 C 14.261719 41.582031 14.359375 41.546875 14.457031 41.503906 C 14.566406 41.453125 14.6875 41.390625 14.671875 41.246094 C 14.660156 41.105469 14.542969 41.050781 14.425781 41.007812 C 14.398438 40.996094 14.367188 40.996094 14.335938 40.984375 C 13.417969 40.667969 13.289062 40.152344 14.007812 39.472656 C 15.046875 38.488281 16.164062 37.605469 17.582031 37.199219 C 17.921875 37.101562 18.261719 37.046875 18.59375 37.246094 C 18.816406 37.382812 18.996094 37.238281 19.183594 37.144531 C 19.660156 36.894531 19.707031 36.914062 19.875 37.4375 C 20.101562 38.148438 20.367188 38.835938 20.726562 39.492188 C 20.886719 39.789062 21.039062 39.886719 21.359375 39.675781 C 21.875 39.34375 22.441406 39.128906 23.066406 39.117188 C 23.382812 39.109375 23.492188 38.949219 23.425781 38.640625 C 23.28125 37.941406 23.136719 37.246094 23.011719 36.546875 C 22.964844 36.28125 22.824219 36.136719 22.582031 36.082031 C 22.035156 35.953125 21.492188 35.828125 20.941406 35.707031 C 20.667969 35.648438 20.476562 35.792969 20.441406 36.042969 C 20.390625 36.421875 20.171875 36.457031 19.863281 36.441406 C 19.152344 36.40625 18.445312 36.339844 17.730469 36.34375 C 16.964844 36.347656 16.21875 36.441406 15.496094 36.6875 C 15.21875 36.777344 14.933594 36.816406 14.644531 36.796875 C 14.464844 36.789062 14.292969 36.746094 14.261719 36.546875 C 14.230469 36.347656 14.414062 36.304688 14.546875 36.246094 C 14.683594 36.183594 14.824219 36.144531 15.015625 36.074219 C 14.675781 35.863281 14.34375 35.84375 14.023438 35.777344 C 13.71875 35.710938 13.457031 35.625 13.59375 35.203125 C 13.691406 34.890625 13.464844 34.890625 13.246094 34.925781 C 11.8125 35.164062 10.375 35.066406 8.933594 34.988281 C 8.859375 34.984375 8.78125 34.984375 8.710938 34.964844 C 8.59375 34.941406 8.457031 34.917969 8.4375 34.769531 C 8.417969 34.609375 8.558594 34.574219 8.664062 34.523438 C 9.203125 34.257812 9.808594 34.242188 10.378906 34.089844 C 10.976562 33.929688 11.160156 33.691406 11.179688 33 C 10.144531 33.167969 9.113281 33.59375 8 33.089844 C 8.402344 32.609375 8.871094 32.433594 9.390625 32.375 C 10.394531 32.265625 11.359375 32.023438 12.25 31.527344 C 12.398438 31.445312 12.59375 31.402344 12.683594 31.191406 C 12.507812 30.988281 12.265625 30.984375 12.027344 30.980469 C 11.632812 30.972656 11.238281 30.980469 10.84375 30.972656 C 10.691406 30.96875 10.519531 30.925781 10.503906 30.742188 C 10.488281 30.585938 10.640625 30.519531 10.769531 30.464844 C 11.285156 30.253906 11.839844 30.28125 12.378906 30.21875 C 13.308594 30.109375 14.195312 29.878906 15.050781 29.507812 C 16.066406 29.070312 17.171875 28.878906 18.175781 28.398438 C 18.320312 28.328125 18.496094 28.304688 18.585938 28.144531 C 18.585938 27.960938 18.355469 27.941406 18.335938 27.726562 C 18.964844 27.347656 19.835938 27.492188 20.425781 26.933594 C 20.25 26.695312 20.027344 26.71875 19.820312 26.703125 C 18.519531 26.621094 17.214844 26.5625 15.910156 26.605469 C 15.675781 26.613281 15.402344 26.6875 15.347656 26.316406 C 14.027344 26.8125 12.746094 27.226562 11.4375 27.570312 C 11.042969 27.671875 10.65625 27.664062 10.273438 27.5625 C 9.976562 27.484375 9.941406 27.292969 10.179688 27.113281 C 10.394531 26.949219 10.640625 26.824219 10.882812 26.695312 C 12.195312 26 13.527344 25.339844 14.824219 24.613281 C 15.894531 24.019531 17.082031 23.957031 18.234375 23.734375 C 19.320312 23.523438 20.425781 23.402344 21.476562 23.042969 C 21.628906 22.992188 21.800781 22.96875 21.929688 22.765625 C 21.253906 22.707031 20.632812 22.828125 20.011719 22.914062 C 19.617188 22.96875 19.226562 22.972656 18.832031 22.953125 C 18.496094 22.933594 18.21875 22.800781 18.109375 22.417969 C 18.503906 22.148438 19.003906 22.300781 19.433594 22.0625 C 19.277344 21.640625 18.925781 21.644531 18.613281 21.699219 C 17.957031 21.816406 17.308594 21.976562 16.660156 22.132812 C 16.132812 22.253906 15.609375 22.300781 15.085938 22.148438 C 14.929688 22.105469 14.761719 22.070312 14.609375 21.878906 C 15.226562 21.210938 16.140625 21.34375 16.914062 21.039062 C 16.6875 20.488281 17.085938 20.414062 17.46875 20.332031 C 17.851562 20.25 18.234375 20.175781 18.660156 20.085938 C 18.5 19.777344 18.703125 19.714844 18.90625 19.632812 C 20.742188 18.910156 22.613281 18.292969 24.503906 17.730469 C 24.589844 17.707031 24.683594 17.699219 24.742188 17.617188 C 24.777344 17.476562 24.59375 17.425781 24.613281 17.273438 C 24.625 17.253906 24.644531 17.203125 24.675781 17.183594 C 25.105469 16.898438 25.601562 16.816406 26.089844 16.722656 C 27.191406 16.507812 28.28125 16.265625 29.394531 16.105469 C 30.371094 15.964844 31.246094 15.449219 32.175781 15.117188 C 33.671875 14.582031 35.160156 14.011719 36.652344 13.453125 C 37.40625 13.171875 38.191406 13.15625 38.984375 13.167969 C 40.574219 13.195312 42.164062 13.253906 43.707031 13.707031 C 44.34375 13.898438 44.390625 14.121094 43.9375 14.617188 C 43.492188 15.105469 42.9375 15.359375 42.292969 15.390625 C 41.457031 15.425781 40.691406 15.671875 39.941406 16.023438 C 38.828125 16.542969 37.675781 16.96875 36.515625 17.371094 C 36.125 17.503906 35.742188 17.660156 35.417969 17.914062 C 34.316406 18.765625 33.011719 19.105469 31.695312 19.410156 C 30.382812 19.714844 29.085938 20.089844 27.742188 20.242188 C 27.664062 20.253906 27.597656 20.28125 27.570312 20.382812 C 27.640625 20.578125 27.796875 20.515625 27.941406 20.496094 C 28.347656 20.4375 28.75 20.375 29.15625 20.328125 C 29.347656 20.304688 29.59375 20.253906 29.65625 20.507812 C 29.714844 20.753906 29.484375 20.855469 29.308594 20.914062 C 28.632812 21.144531 27.957031 21.367188 27.269531 21.558594 C 26.148438 21.871094 25.078125 22.363281 23.917969 22.554688 C 23.578125 22.613281 23.21875 22.546875 22.871094 22.710938 C 22.933594 23.132812 22.65625 23.332031 22.332031 23.492188 C 20.957031 24.175781 19.5 24.65625 18.085938 25.246094 C 17.449219 25.511719 16.800781 25.757812 16.164062 26.050781 C 17.570312 25.828125 18.972656 26.078125 20.375 26.007812 C 21.105469 25.972656 21.808594 25.808594 22.441406 25.386719 C 21.765625 25.265625 21.050781 25.8125 20.28125 25.21875 C 21.820312 24.394531 23.375 23.964844 24.980469 23.722656 C 25.125 23.992188 24.964844 24.109375 24.878906 24.238281 C 24.425781 24.9375 23.964844 25.632812 23.496094 26.320312 C 23.277344 26.640625 23.183594 27.019531 22.925781 27.339844 C 22.730469 27.585938 22.605469 27.738281 22.304688 27.699219 C 21.992188 27.65625 21.851562 27.835938 21.808594 28.101562 C 21.761719 28.40625 21.667969 28.6875 21.515625 28.949219 C 21.609375 29.042969 21.714844 29.011719 21.773438 28.957031 C 22.226562 28.554688 22.789062 28.449219 23.355469 28.332031 C 23.464844 28.308594 23.5625 28.164062 23.648438 28.0625 C 23.953125 27.683594 24.253906 27.304688 24.550781 26.917969 C 24.761719 26.644531 25.105469 26.417969 24.894531 25.980469 C 24.867188 25.921875 24.941406 25.8125 24.980469 25.730469 C 25.34375 24.953125 25.792969 24.238281 26.429688 23.65625 C 26.550781 23.542969 26.652344 23.402344 26.867188 23.394531 C 27.03125 23.574219 26.941406 23.789062 26.90625 23.980469 C 26.746094 24.824219 26.398438 25.601562 25.976562 26.339844 C 25.824219 26.605469 25.699219 26.878906 25.625 27.175781 C 25.558594 27.460938 25.382812 27.679688 25.226562 27.925781 C 24.789062 28.613281 24.660156 29.410156 24.601562 30.210938 C 24.578125 30.496094 24.8125 30.503906 25.019531 30.484375 C 25.644531 30.421875 26.234375 30.234375 26.820312 30.019531 C 28.195312 29.515625 29.371094 28.695312 30.464844 27.746094 C 31.691406 26.679688 32.980469 25.695312 34.347656 24.816406 C 34.59375 24.65625 34.824219 24.492188 34.707031 24.121094 C 34.644531 23.925781 34.820312 23.832031 34.980469 23.851562 C 35.800781 23.949219 36.4375 23.519531 37.078125 23.113281 C 37.554688 22.816406 38.050781 22.773438 38.550781 23.007812 C 38.859375 23.148438 39.089844 23.09375 39.335938 22.882812 C 40.113281 22.222656 40.90625 21.589844 41.910156 21.296875 C 42.578125 21.105469 43.253906 21.039062 43.9375 21.144531 C 44.644531 21.25 45.300781 21.125 45.890625 20.722656 C 46.949219 20 48.132812 19.839844 49.367188 19.984375 C 50.207031 20.082031 50.992188 19.828125 51.792969 19.679688 C 52.816406 19.484375 53.832031 19.210938 54.875 19.121094 C 55.191406 19.09375 55.699219 18.90625 55.761719 19.367188 C 55.8125 19.761719 55.296875 19.761719 54.988281 19.835938 C 53.886719 20.105469 52.777344 20.351562 51.671875 20.605469 C 51.449219 20.65625 51.230469 20.714844 51.023438 20.957031 C 51.726562 21.265625 52.40625 21.4375 53.117188 21.132812 C 53.800781 20.839844 54.46875 20.511719 55.191406 20.328125 C 55.375 20.28125 55.621094 20.078125 55.746094 20.367188 C 55.851562 20.617188 55.585938 20.734375 55.417969 20.84375 C 54.757812 21.277344 54.097656 21.707031 53.417969 22.105469 C 52.832031 22.453125 52.359375 22.789062 52.226562 23.578125 C 52.097656 24.3125 51.496094 24.816406 50.601562 25.011719 C 51.257812 25.441406 51.902344 25.582031 52.535156 25.734375 C 53.109375 25.871094 53.699219 25.957031 54.25 26.175781 C 54.628906 26.320312 54.632812 26.449219 54.304688 26.691406 C 53.980469 26.933594 53.601562 27.105469 53.28125 27.421875 C 53.648438 27.96875 53.53125 28.4375 53.074219 28.878906 C 52.898438 29.050781 52.765625 29.285156 52.757812 29.554688 C 52.910156 29.742188 53.195312 29.613281 53.328125 29.835938 C 53.359375 30.132812 52.984375 30.082031 52.894531 30.324219 C 53.382812 30.535156 53.988281 30.058594 54.441406 30.570312 C 54.324219 30.898438 54.027344 30.96875 53.738281 31.054688 C 52.988281 31.277344 52.210938 31.417969 51.476562 31.703125 C 51.476562 31.890625 51.722656 31.914062 51.683594 32.152344 C 51.171875 32.480469 50.5 32.550781 49.855469 32.9375 C 50.726562 32.882812 51.441406 32.542969 52.238281 32.5 C 52.253906 32.914062 52.066406 33.148438 51.714844 33.261719 C 50.605469 33.625 49.496094 33.984375 48.382812 34.34375 C 47.605469 34.59375 46.828125 34.84375 46.046875 35.089844 C 45.851562 35.152344 45.679688 35.269531 45.578125 35.433594 C 44.972656 36.40625 43.960938 36.765625 42.988281 37.183594 C 42.125 37.558594 41.214844 37.792969 40.328125 38.109375 C 39.097656 38.546875 37.925781 39.113281 36.777344 39.738281 C 36.484375 39.894531 36.175781 40.03125 35.867188 40.152344 C 35.640625 40.238281 35.363281 40.09375 35.53125 39.90625 C 36.035156 39.339844 35.785156 38.597656 36.085938 37.992188 C 36.226562 37.707031 36.277344 37.402344 36.660156 37.3125 C 36.851562 37.269531 37.019531 37.089844 36.988281 36.875 C 36.949219 36.601562 36.699219 36.710938 36.539062 36.710938 C 35.355469 36.710938 34.179688 36.808594 33 36.914062 C 31.617188 37.035156 30.242188 36.914062 28.867188 36.824219 C 27.539062 36.738281 26.214844 36.578125 24.886719 36.445312 C 24.570312 36.414062 24.46875 36.566406 24.515625 36.847656 C 24.636719 37.550781 24.765625 38.25 24.890625 38.949219 C 24.921875 39.121094 25.042969 39.203125 25.207031 39.238281 C 26.109375 39.4375 26.996094 39.695312 27.867188 40.007812 C 28.085938 40.085938 28.246094 39.988281 28.394531 39.839844 C 28.679688 39.558594 28.886719 39.222656 29.042969 38.859375 C 29.386719 38.039062 30.070312 37.738281 30.890625 37.695312 C 31.292969 37.675781 31.660156 37.640625 31.976562 37.34375 C 32.199219 37.140625 32.496094 37.230469 32.761719 37.28125 C 33.625 37.453125 34.460938 37.703125 35.25 38.214844 C 35.0625 38.5625 34.699219 38.757812 34.375 38.980469 C 33.875 39.320312 33.332031 39.59375 32.773438 39.835938 C 32.496094 39.957031 32.300781 40.109375 32.394531 40.457031 C 32.449219 40.648438 32.339844 40.796875 32.171875 40.851562 C 30.679688 41.308594 29.324219 42.136719 27.777344 42.449219 C 27.144531 42.574219 26.507812 42.554688 25.875 42.492188 C 25.628906 42.464844 25.394531 42.464844 25.152344 42.507812 C 24.746094 42.578125 24.34375 42.773438 23.929688 42.476562 C 23.78125 42.371094 23.582031 42.523438 23.417969 42.601562 C 22.300781 43.125 21.160156 43.550781 19.914062 43.671875 C 19.285156 43.730469 18.671875 43.6875 18.066406 43.535156 C 17.410156 43.375 17.226562 43.078125 17.335938 42.410156 C 17.359375 42.265625 17.371094 42.113281 17.386719 41.964844 C 17.171875 41.871094 17.058594 42.03125 16.933594 42.113281 C 15.644531 42.945312 14.363281 43.78125 13.082031 44.621094 C 12.863281 44.761719 12.644531 44.898438 12.386719 44.949219 C 12.242188 44.980469 12.078125 45.042969 11.976562 44.871094 C 11.867188 44.6875 12.023438 44.585938 12.140625 44.503906 C 12.605469 44.164062 13.078125 43.832031 13.546875 43.5 C 13.855469 43.28125 14.171875 43.070312 14.429688 42.707031 C 13.890625 42.53125 13.394531 42.699219 12.90625 42.765625 C 12.445312 42.828125 11.996094 42.988281 11.535156 43.09375 C 11.171875 43.179688 10.976562 43.367188 11.054688 43.769531 C 11.113281 44.074219 10.949219 44.234375 10.65625 44.25 C 10.023438 44.285156 9.386719 44.320312 8.75 44.324219 C 8.511719 44.324219 8.261719 44.269531 8.121094 43.988281 C 8.230469 43.792969 8.414062 43.628906 8.378906 43.332031 C 8.347656 43.078125 8.660156 43.058594 8.859375 43.003906 C 10.351562 42.609375 11.847656 42.222656 13.34375 41.832031 C 13.59375 41.765625 13.84375 41.707031 14.128906 41.632812 M 34.472656 35.136719 C 34.789062 35.125 35.109375 35.121094 35.425781 35.097656 C 37.433594 34.949219 39.4375 34.777344 41.433594 34.480469 C 43.660156 34.152344 45.839844 33.664062 47.945312 32.859375 C 48.316406 32.71875 48.535156 32.441406 48.523438 32.027344 C 48.515625 31.617188 48.535156 31.203125 48.476562 30.800781 C 48.089844 28.089844 47.085938 25.636719 45.386719 23.476562 C 45.074219 23.078125 44.703125 22.878906 44.1875 22.859375 C 42.714844 22.808594 41.34375 23.238281 39.992188 23.726562 C 36.925781 24.832031 34.289062 26.644531 31.84375 28.761719 C 30.726562 29.726562 29.539062 30.589844 28.179688 31.1875 C 27.089844 31.664062 25.960938 32 24.777344 32.136719 C 24.5 32.167969 24.324219 32.273438 24.328125 32.589844 C 24.332031 33.242188 24.332031 33.894531 24.320312 34.546875 C 24.316406 34.851562 24.480469 34.988281 24.761719 35.011719 C 25.214844 35.050781 25.667969 35.09375 26.121094 35.117188 C 28.039062 35.210938 29.960938 35.320312 31.886719 35.230469 C 32.71875 35.1875 33.554688 35.246094 34.472656 35.136719 M 19.828125 34.285156 C 20.605469 34.425781 21.375 34.566406 22.152344 34.703125 C 22.648438 34.792969 22.828125 34.652344 22.839844 34.144531 C 22.855469 33.585938 22.835938 33.023438 22.84375 32.460938 C 22.84375 32.183594 22.722656 31.992188 22.464844 31.902344 C 21.4375 31.539062 20.714844 30.851562 20.253906 29.871094 C 20.1875 29.726562 20.105469 29.539062 19.90625 29.554688 C 19.6875 29.574219 19.496094 29.671875 19.398438 29.886719 C 19.308594 30.082031 19.257812 30.285156 19.21875 30.496094 C 19.046875 31.453125 19.03125 32.421875 19.050781 33.394531 C 19.0625 34.070312 19.101562 34.121094 19.828125 34.285156 M 23.289062 40.226562 C 22.847656 40.1875 22.417969 40.207031 22.007812 40.398438 C 21.71875 40.53125 21.726562 40.773438 21.804688 41.011719 C 21.878906 41.238281 21.957031 41.492188 22.273438 41.484375 C 22.691406 41.46875 23.113281 41.460938 23.527344 41.414062 C 24.128906 41.347656 24.257812 41.035156 23.941406 40.511719 C 23.800781 40.28125 23.589844 40.253906 23.289062 40.226562 Z M 23.289062 40.226562 "/>
<path style=" stroke:none;fill-rule:nonzero;fill:rgb(0%,0%,0%);fill-opacity:1;" d="M 33.128906 49.421875 C 34.488281 48.597656 35.875 47.933594 37.421875 47.652344 C 37.828125 47.578125 38.207031 47.421875 38.398438 46.992188 C 38.492188 46.789062 38.714844 46.710938 38.90625 46.625 C 39.503906 46.367188 40.105469 46.113281 40.707031 45.855469 C 40.867188 45.789062 41.019531 45.707031 41.257812 45.589844 C 40.773438 45.488281 40.386719 45.53125 40 45.535156 C 39.890625 45.535156 39.785156 45.542969 39.679688 45.542969 C 39.4375 45.539062 39.171875 45.46875 39.160156 45.210938 C 39.144531 44.933594 39.433594 44.871094 39.65625 44.859375 C 40.425781 44.8125 41.199219 44.789062 41.972656 44.757812 C 42.183594 44.75 42.398438 44.761719 42.589844 44.632812 C 42.628906 44.410156 42.316406 44.351562 42.347656 44.101562 C 42.71875 43.882812 43.164062 43.847656 43.578125 43.734375 C 44.617188 43.453125 45.65625 43.183594 46.699219 42.917969 C 46.875 42.871094 47.117188 42.71875 47.222656 42.972656 C 47.34375 43.257812 47.082031 43.386719 46.882812 43.476562 C 46.316406 43.730469 45.734375 43.949219 45.160156 44.1875 C 44.925781 44.28125 44.683594 44.363281 44.449219 44.5625 C 46.351562 44.414062 48.140625 43.957031 49.9375 43.535156 C 50.324219 43.445312 50.710938 43.378906 51.109375 43.421875 C 51.234375 43.433594 51.359375 43.449219 51.394531 43.59375 C 51.4375 43.785156 51.28125 43.824219 51.160156 43.867188 C 50.617188 44.066406 50.074219 44.253906 49.53125 44.449219 C 49.367188 44.507812 49.214844 44.589844 48.953125 44.703125 C 49.667969 45.023438 50.289062 45.023438 50.910156 44.878906 C 51.828125 44.664062 52.675781 44.226562 53.605469 44.0625 C 53.941406 44.003906 54.28125 43.871094 54.609375 44.089844 C 54.632812 44.34375 54.441406 44.421875 54.285156 44.488281 C 52.933594 45.09375 51.601562 45.757812 50.09375 45.933594 C 49.5625 45.992188 49.03125 46.019531 48.503906 45.96875 C 47.546875 45.878906 46.625 46.035156 45.734375 46.335938 C 44.109375 46.886719 42.511719 47.496094 40.941406 48.179688 C 39.410156 48.84375 38.078125 49.824219 36.71875 50.761719 C 34.367188 52.386719 31.953125 53.890625 29.210938 54.78125 C 28.972656 54.859375 28.734375 55 28.332031 54.789062 C 30.375 53.628906 32.339844 52.511719 34.308594 51.390625 C 34.292969 51.363281 34.277344 51.332031 34.261719 51.304688 C 33.378906 51.71875 32.496094 52.140625 31.605469 52.542969 C 30.726562 52.941406 29.890625 53.453125 28.925781 53.652344 C 28.789062 53.679688 28.617188 53.808594 28.515625 53.628906 C 28.40625 53.4375 28.582031 53.328125 28.703125 53.21875 C 28.972656 52.96875 29.316406 52.832031 29.660156 52.632812 C 29.59375 52.445312 29.378906 52.25 29.707031 52.039062 C 28.609375 52.203125 27.597656 52.320312 26.566406 52.011719 C 26.671875 51.640625 26.960938 51.601562 27.210938 51.527344 C 28.355469 51.183594 29.5 50.824219 30.65625 50.519531 C 31.535156 50.285156 32.324219 49.886719 33.128906 49.421875 Z M 33.128906 49.421875 "/>
<path style=" stroke:none;fill-rule:nonzero;fill:rgb(0%,0%,0%);fill-opacity:1;" d="M 50.855469 39 C 50.980469 39.28125 51.171875 39.34375 51.429688 39.300781 C 52.699219 39.074219 53.953125 38.792969 55.113281 38.195312 C 55.402344 38.042969 55.703125 37.90625 56.160156 38.019531 C 55.492188 38.9375 54.578125 39.308594 53.554688 39.699219 C 54.433594 39.816406 55.105469 39.539062 55.738281 39.160156 C 56.546875 38.675781 57.375 38.234375 58.222656 37.828125 C 58.320312 37.78125 58.414062 37.726562 58.511719 37.699219 C 58.746094 37.628906 59.03125 37.519531 59.152344 37.8125 C 59.261719 38.085938 58.957031 38.152344 58.792969 38.25 C 57.800781 38.839844 56.8125 39.429688 55.808594 39.996094 C 55.097656 40.394531 54.332031 40.621094 53.503906 40.609375 C 53.167969 40.605469 52.84375 40.664062 52.515625 40.761719 C 52.828125 41.0625 52.738281 41.359375 52.277344 41.464844 C 51.554688 41.628906 50.824219 41.757812 50.09375 41.898438 C 47.820312 42.328125 45.542969 42.203125 43.253906 42.03125 C 41.753906 41.917969 40.308594 41.460938 38.816406 41.316406 C 37.226562 41.160156 35.746094 41.535156 34.335938 42.246094 C 34.261719 42.28125 34.164062 42.320312 34.175781 42.476562 C 35.015625 42.363281 35.773438 41.890625 36.65625 41.867188 C 36.664062 42.269531 36.40625 42.398438 36.183594 42.539062 C 35.171875 43.1875 33.984375 43.386719 32.894531 43.835938 C 31.953125 44.222656 31.007812 44.492188 29.988281 44.453125 C 29.878906 44.449219 29.773438 44.460938 29.667969 44.441406 C 29.503906 44.414062 29.304688 44.378906 29.28125 44.1875 C 29.25 43.953125 29.484375 43.964844 29.632812 43.917969 C 30.542969 43.636719 31.457031 43.355469 32.371094 43.074219 C 32.625 42.996094 32.882812 42.921875 33.117188 42.757812 C 32.945312 42.554688 32.65625 42.625 32.492188 42.394531 C 32.605469 42.148438 32.855469 42.0625 33.074219 41.949219 C 34.707031 41.105469 36.457031 40.597656 38.261719 40.339844 C 40.113281 40.074219 41.921875 39.671875 43.710938 39.144531 C 44.175781 39.007812 44.671875 38.863281 45.140625 38.902344 C 46.34375 38.996094 47.351562 38.507812 48.375 38.003906 C 48.804688 37.789062 49.21875 37.519531 49.71875 37.464844 C 49.867188 37.449219 50.042969 37.378906 50.117188 37.5625 C 50.203125 37.789062 49.984375 37.835938 49.847656 37.914062 C 49.417969 38.164062 48.976562 38.402344 48.546875 38.65625 C 48.425781 38.726562 48.25 38.753906 48.234375 39.003906 C 48.707031 39.007812 49.148438 38.847656 49.601562 38.792969 C 50.027344 38.742188 50.476562 38.554688 50.855469 39 Z M 50.855469 39 "/>
<path style=" stroke:none;fill-rule:nonzero;fill:rgb(0%,0%,0%);fill-opacity:1;" d="M 51.574219 15.785156 C 52.015625 15.652344 52.429688 15.554688 52.851562 15.515625 C 52.992188 15.503906 53.140625 15.515625 53.199219 15.671875 C 53.261719 15.855469 53.132812 15.964844 52.996094 16.027344 C 52.761719 16.136719 52.515625 16.21875 52.277344 16.308594 C 49.972656 17.160156 47.652344 17.964844 45.261719 18.550781 C 45.019531 18.609375 44.792969 18.660156 44.800781 19 C 44.804688 19.210938 44.628906 19.324219 44.445312 19.363281 C 42.140625 19.84375 40.308594 21.285156 38.304688 22.371094 C 37.035156 23.0625 35.6875 23.375 34.28125 23.542969 C 33.765625 23.167969 33.015625 23.453125 32.554688 22.871094 C 32.164062 22.378906 31.59375 22.03125 31.304688 21.441406 C 31.226562 21.28125 31 21.300781 30.9375 21.117188 C 32.015625 20.421875 33 19.542969 34.34375 19.378906 C 34.582031 19.351562 34.917969 19.191406 34.933594 19.691406 C 36.039062 19.371094 37.109375 19.03125 38.191406 18.75 C 39.710938 18.351562 41.136719 17.71875 42.574219 17.105469 C 43.171875 16.851562 43.769531 16.710938 44.421875 16.714844 C 45.242188 16.714844 46.0625 16.765625 46.878906 16.660156 C 47.054688 16.636719 47.253906 16.605469 47.375 16.789062 C 47.523438 17.003906 47.226562 17.070312 47.191406 17.261719 C 47.992188 17.140625 48.742188 16.90625 49.453125 16.574219 C 50.128906 16.253906 50.808594 15.964844 51.574219 15.785156 Z M 51.574219 15.785156 "/>
<path style=" stroke:none;fill-rule:nonzero;fill:rgb(0%,0%,0%);fill-opacity:1;" d="M 23.925781 47.859375 C 25.921875 46.488281 28.121094 45.851562 30.488281 45.785156 C 30.984375 45.769531 31.335938 45.664062 31.617188 45.210938 C 31.925781 44.707031 32.417969 44.421875 33 44.390625 C 33.152344 44.570312 32.972656 44.695312 33.039062 44.828125 C 33.101562 44.902344 33.1875 44.9375 33.28125 44.925781 C 34.628906 44.761719 35.96875 44.652344 37.261719 44.105469 C 38.25 43.6875 39.375 43.613281 40.472656 43.609375 C 40.601562 43.609375 40.75 43.613281 40.84375 43.773438 C 40.808594 44.039062 40.558594 44.09375 40.367188 44.179688 C 39.773438 44.453125 39.171875 44.691406 38.507812 44.738281 C 37.324219 44.824219 36.351562 45.414062 35.441406 46.109375 C 34.65625 46.707031 33.894531 47.328125 33.117188 47.933594 C 32.792969 48.1875 32.453125 48.402344 32.027344 48.292969 C 31.917969 48.125 32.132812 48.019531 32.039062 47.859375 C 31.847656 47.839844 31.726562 47.988281 31.585938 48.085938 C 30.457031 48.875 29.378906 49.746094 28.078125 50.257812 C 27.574219 50.460938 27.0625 50.65625 26.515625 50.722656 C 26.378906 50.738281 26.179688 50.792969 26.136719 50.582031 C 26.105469 50.414062 26.277344 50.375 26.398438 50.3125 C 27.265625 49.882812 28.132812 49.449219 28.980469 48.972656 C 28.609375 49.097656 28.238281 49.222656 27.867188 49.355469 C 26.597656 49.796875 25.296875 50.109375 23.949219 50.003906 C 22.769531 49.910156 21.769531 50.433594 20.71875 50.800781 C 20.203125 50.980469 19.71875 51.246094 19.171875 51.324219 C 19.007812 51.347656 18.84375 51.40625 18.675781 51.292969 C 18.613281 50.964844 18.894531 50.859375 19.09375 50.734375 C 20.222656 50.023438 21.363281 49.328125 22.546875 48.714844 C 23.019531 48.46875 23.464844 48.1875 23.925781 47.859375 Z M 23.925781 47.859375 "/>
<path style=" stroke:none;fill-rule:nonzero;fill:rgb(0%,0%,0%);fill-opacity:1;" d="M 19.082031 45.113281 C 20.578125 44.054688 22.328125 44.011719 24 43.6875 C 25.027344 43.488281 26.054688 43.304688 27.042969 42.945312 C 27.308594 42.847656 27.6875 42.695312 27.816406 43 C 27.945312 43.304688 27.574219 43.496094 27.316406 43.601562 C 23.714844 45.078125 20.152344 46.664062 16.378906 47.679688 C 16 47.78125 15.628906 47.761719 15.257812 47.65625 C 14.933594 47.570312 14.957031 47.398438 15.167969 47.214844 C 15.28125 47.113281 15.414062 47.035156 15.546875 46.964844 C 16.714844 46.351562 17.882812 45.742188 19.082031 45.113281 Z M 19.082031 45.113281 "/>
<path style=" stroke:none;fill-rule:nonzero;fill:rgb(0%,0%,0%);fill-opacity:1;" d="M 52.507812 34.273438 C 52.574219 34.574219 52.347656 34.664062 52.179688 34.769531 C 50.929688 35.546875 49.660156 36.277344 48.242188 36.714844 C 47.753906 36.863281 47.4375 37.230469 47.070312 37.574219 C 46.390625 38.21875 45.515625 38.582031 44.574219 38.671875 C 43.371094 38.78125 42.160156 38.832031 40.949219 38.902344 C 40.800781 38.914062 40.648438 38.914062 40.496094 38.898438 C 40.328125 38.878906 40.136719 38.835938 40.132812 38.632812 C 40.128906 38.4375 40.328125 38.429688 40.46875 38.386719 C 42.214844 37.847656 44.019531 37.445312 45.691406 36.734375 C 47.769531 35.851562 49.953125 35.269531 52.015625 34.367188 C 52.164062 34.304688 52.308594 34.199219 52.507812 34.273438 Z M 52.507812 34.273438 "/>
<path style=" stroke:none;fill-rule:nonzero;fill:rgb(0%,0%,0%);fill-opacity:1;" d="M 31.726562 14.257812 C 31.246094 14.679688 30.6875 14.820312 30.105469 14.855469 C 29.246094 14.90625 28.378906 14.847656 27.515625 14.933594 C 27.414062 14.945312 27.300781 14.933594 27.203125 14.898438 C 27.046875 14.835938 26.875 14.753906 26.882812 14.558594 C 26.894531 14.382812 27.058594 14.316406 27.203125 14.273438 C 27.574219 14.164062 27.957031 14.1875 28.332031 14.183594 C 29.023438 14.175781 29.714844 14.164062 30.402344 14.054688 C 30.371094 13.789062 30.113281 13.734375 30.074219 13.53125 C 30.089844 13.414062 30.1875 13.394531 30.273438 13.371094 C 31.667969 13.015625 33.0625 12.65625 34.457031 12.308594 C 34.636719 12.261719 34.878906 12.136719 34.976562 12.386719 C 35.085938 12.660156 34.824219 12.761719 34.640625 12.839844 C 34.03125 13.109375 33.414062 13.363281 32.792969 13.609375 C 32.410156 13.761719 32.035156 13.917969 31.726562 14.257812 Z M 31.726562 14.257812 "/>
<path style=" stroke:none;fill-rule:nonzero;fill:rgb(0%,0%,0%);fill-opacity:1;" d="M 42.113281 51.140625 C 42.050781 51.117188 42.023438 51.109375 41.996094 51.097656 C 41.574219 50.90625 41.070312 50.691406 41.09375 50.1875 C 41.117188 49.652344 41.667969 49.5 42.113281 49.351562 C 42.734375 49.144531 43.332031 49.179688 43.910156 49.523438 C 44.199219 49.695312 44.527344 49.757812 44.871094 49.722656 C 45.128906 49.695312 45.4375 49.664062 45.507812 49.988281 C 45.578125 50.300781 45.398438 50.570312 45.105469 50.679688 C 44.152344 51.027344 43.199219 51.390625 42.113281 51.140625 Z M 42.113281 51.140625 "/>
<path style=" stroke:none;fill-rule:nonzero;fill:rgb(0%,0%,0%);fill-opacity:1;" d="M 10.019531 37.511719 C 10.808594 36.847656 11.8125 36.71875 12.667969 37.171875 C 13.019531 37.359375 13.382812 37.398438 13.765625 37.386719 C 13.980469 37.378906 14.222656 37.371094 14.292969 37.632812 C 14.367188 37.894531 14.242188 38.167969 14.023438 38.253906 C 12.910156 38.675781 11.796875 39.207031 10.570312 38.644531 C 10.207031 38.472656 9.894531 38.230469 9.878906 37.773438 C 9.875 37.695312 9.953125 37.617188 10.019531 37.511719 Z M 10.019531 37.511719 "/>
<path style=" stroke:none;fill-rule:nonzero;fill:rgb(0%,0%,0%);fill-opacity:1;" d="M 48.882812 17.917969 C 49.382812 17.769531 49.84375 17.621094 50.308594 17.496094 C 50.492188 17.449219 50.742188 17.40625 50.824219 17.640625 C 50.890625 17.839844 50.667969 17.914062 50.527344 17.984375 C 49.769531 18.363281 49.011719 18.738281 48.246094 19.101562 C 48.015625 19.210938 47.757812 19.261719 47.492188 19.234375 C 47.292969 19.210938 47.074219 19.160156 47.027344 18.941406 C 46.980469 18.730469 47.132812 18.554688 47.3125 18.46875 C 47.613281 18.332031 47.929688 18.234375 48.246094 18.125 C 48.445312 18.054688 48.648438 17.992188 48.882812 17.917969 Z M 48.882812 17.917969 "/>
<path style=" stroke:none;fill-rule:nonzero;fill:rgb(0%,0%,0%);fill-opacity:1;" d="M 44.601562 48.472656 C 44.894531 47.898438 45.351562 47.664062 45.9375 47.683594 C 46.183594 47.691406 46.390625 47.8125 46.429688 48.066406 C 46.464844 48.328125 46.21875 48.367188 46.042969 48.429688 C 45.671875 48.554688 45.296875 48.65625 44.921875 48.769531 C 44.691406 48.835938 44.574219 48.753906 44.601562 48.472656 Z M 44.601562 48.472656 "/>
<path style=" stroke:none;fill-rule:nonzero;fill:rgb(0%,0%,0%);fill-opacity:1;" d="M 11.253906 40.003906 C 11.582031 39.773438 11.914062 39.691406 12.269531 39.78125 C 12.453125 39.828125 12.605469 39.953125 12.609375 40.160156 C 12.613281 40.339844 12.453125 40.398438 12.308594 40.449219 C 11.933594 40.570312 11.5625 40.695312 11.1875 40.808594 C 11.0625 40.847656 10.921875 40.925781 10.8125 40.785156 C 10.695312 40.632812 10.8125 40.503906 10.882812 40.375 C 10.964844 40.222656 11.085938 40.113281 11.253906 40.003906 Z M 11.253906 40.003906 "/>
<path style=" stroke:none;fill-rule:nonzero;fill:rgb(0%,0%,0%);fill-opacity:1;" d="M 26.199219 44.683594 C 26.566406 44.394531 26.921875 44.4375 27.277344 44.617188 C 27.414062 44.691406 27.5 44.828125 27.480469 44.992188 C 27.464844 45.160156 27.351562 45.261719 27.199219 45.308594 C 26.863281 45.410156 26.539062 45.371094 26.246094 45.1875 C 26.054688 45.070312 26.074219 44.890625 26.199219 44.683594 Z M 26.199219 44.683594 "/>
</g>
</svg>
